<svg viewBox="0 0 330 200" xmlns="http://www.w3.org/2000/svg"><g><g><g><g><g><line x1="40" y1="178" x2="35" y2="178" style="visibility: inherit;" fill="rgb(0, 0, 0)" stroke="rgb(204, 204, 204)" stroke-width="1px"></line><line x1="40" y1="155.75" x2="35" y2="155.75" style="visibility: inherit;" fill="rgb(0, 0, 0)" stroke="rgb(204, 204, 204)" stroke-width="1px"></line><line x1="40" y1="133.5" x2="35" y2="133.5" style="visibility: inherit;" fill="rgb(0, 0, 0)" stroke="rgb(204, 204, 204)" stroke-width="1px"></line><line x1="40" y1="111.25" x2="35" y2="111.25" style="visibility: inherit;" fill="rgb(0, 0, 0)" stroke="rgb(204, 204, 204)" stroke-width="1px"></line><line x1="40" y1="89" x2="35" y2="89" style="visibility: inherit;" fill="rgb(0, 0, 0)" stroke="rgb(204, 204, 204)" stroke-width="1px"></line><line x1="40" y1="66.75" x2="35" y2="66.75" style="visibility: inherit;" fill="rgb(0, 0, 0)" stroke="rgb(204, 204, 204)" stroke-width="1px"></line><line x1="40" y1="44.5" x2="35" y2="44.5" style="visibility: inherit;" fill="rgb(0, 0, 0)" stroke="rgb(204, 204, 204)" stroke-width="1px"></line><line x1="40" y1="22.25" x2="35" y2="22.25" style="visibility: inherit;" fill="rgb(0, 0, 0)" stroke="rgb(204, 204, 204)" stroke-width="1px"></line><line x1="40" y1="0" x2="35" y2="0" style="visibility: inherit;" fill="rgb(0, 0, 0)" stroke="rgb(204, 204, 204)" stroke-width="1px"></line></g><g transform="translate(30, 0)"><text x="0" y="178" dx="0em" dy="0.3em" style="text-anchor: end; visibility: hidden; font-family: Roboto, sans-serif; font-size: 12px; font-weight: 200;" fill="rgb(50, 49, 63)" stroke="none" stroke-width="1px">60</text><text x="0" y="155.75" dx="0em" dy="0.3em" style="text-anchor: end; visibility: inherit; font-family: Roboto, sans-serif; font-size: 12px; font-weight: 200;" fill="rgb(50, 49, 63)" stroke="none" stroke-width="1px">70</text><text x="0" y="133.5" dx="0em" dy="0.3em" style="text-anchor: end; visibility: hidden; font-family: Roboto, sans-serif; font-size: 12px; font-weight: 200;" fill="rgb(50, 49, 63)" stroke="none" stroke-width="1px">80</text><text x="0" y="111.25" dx="0em" dy="0.3em" style="text-anchor: end; visibility: inherit; font-family: Roboto, sans-serif; font-size: 12px; font-weight: 200;" fill="rgb(50, 49, 63)" stroke="none" stroke-width="1px">90</text><text x="0" y="89" dx="0em" dy="0.3em" style="text-anchor: end; visibility: hidden; font-family: Roboto, sans-serif; font-size: 12px; font-weight: 200;" fill="rgb(50, 49, 63)" stroke="none" stroke-width="1px">100</text><text x="0" y="66.75" dx="0em" dy="0.3em" style="text-anchor: end; visibility: inherit; font-family: Roboto, sans-serif; font-size: 12px; font-weight: 200;" fill="rgb(50, 49, 63)" stroke="none" stroke-width="1px">110</text><text x="0" y="44.5" dx="0em" dy="0.3em" style="text-anchor: end; visibility: hidden; font-family: Roboto, sans-serif; font-size: 12px; font-weight: 200;" fill="rgb(50, 49, 63)" stroke="none" stroke-width="1px">120</text><text x="0" y="22.25" dx="0em" dy="0.3em" style="text-anchor: end; visibility: inherit; font-family: Roboto, sans-serif; font-size: 12px; font-weight: 200;" fill="rgb(50, 49, 63)" stroke="none" stroke-width="1px">130</text><text x="0" y="0" dx="0em" dy="0.3em" style="text-anchor: end; visibility: hidden; font-family: Roboto, sans-serif; font-size: 12px; font-weight: 200;" fill="rgb(50, 49, 63)" stroke="none" stroke-width="1px">140</text></g><line x1="40" y1="0" x2="40" y2="178" fill="rgb(0, 0, 0)" stroke="rgb(204, 204, 204)" stroke-width="1px"></line></g></g><g transform="translate(40, 0)" clip-path="url(#clip_0)"><clipPath id="clip_0"><rect width="290" height="178"></rect></clipPath><g><g><g><line x1="0" y1="0" x2="0" y2="178" fill="rgb(0, 0, 0)" stroke="rgb(60, 60, 60)" stroke-width="1px" opacity="0.25"></line><line x1="36.25" y1="0" x2="36.25" y2="178" fill="rgb(0, 0, 0)" stroke="rgb(60, 60, 60)" stroke-width="1px" opacity="0.25"></line><line x1="72.5" y1="0" x2="72.5" y2="178" fill="rgb(0, 0, 0)" stroke="rgb(60, 60, 60)" stroke-width="1px" opacity="0.25"></line><line x1="108.75" y1="0" x2="108.75" y2="178" fill="rgb(0, 0, 0)" stroke="rgb(60, 60, 60)" stroke-width="1px" opacity="0.25"></line><line x1="145" y1="0" x2="145" y2="178" fill="rgb(0, 0, 0)" stroke="rgb(60, 60, 60)" stroke-width="1px" opacity="0.25"></line><line x1="181.25" y1="0" x2="181.25" y2="178" fill="rgb(0, 0, 0)" stroke="rgb(60, 60, 60)" stroke-width="1px" opacity="0.25"></line><line x1="217.5" y1="0" x2="217.5" y2="178" fill="rgb(0, 0, 0)" stroke="rgb(60, 60, 60)" stroke-width="1px" opacity="0.25"></line><line x1="253.75" y1="0" x2="253.75" y2="178" fill="rgb(0, 0, 0)" stroke="rgb(60, 60, 60)" stroke-width="1px" opacity="0.25"></line><line x1="290" y1="0" x2="290" y2="178" fill="rgb(0, 0, 0)" stroke="rgb(60, 60, 60)" stroke-width="1px" opacity="0.25"></line></g><g><line x1="0" y1="178" x2="290" y2="178" fill="rgb(0, 0, 0)" stroke="rgb(60, 60, 60)" stroke-width="1px" opacity="0.25"></line><line x1="0" y1="155.75" x2="290" y2="155.75" fill="rgb(0, 0, 0)" stroke="rgb(60, 60, 60)" stroke-width="1px" opacity="0.25"></line><line x1="0" y1="133.5" x2="290" y2="133.5" fill="rgb(0, 0, 0)" stroke="rgb(60, 60, 60)" stroke-width="1px" opacity="0.25"></line><line x1="0" y1="111.25" x2="290" y2="111.25" fill="rgb(0, 0, 0)" stroke="rgb(60, 60, 60)" stroke-width="1px" opacity="0.25"></line><line x1="0" y1="89" x2="290" y2="89" fill="rgb(0, 0, 0)" stroke="rgb(60, 60, 60)" stroke-width="1px" opacity="0.25"></line><line x1="0" y1="66.75" x2="290" y2="66.75" fill="rgb(0, 0, 0)" stroke="rgb(60, 60, 60)" stroke-width="1px" opacity="0.25"></line><line x1="0" y1="44.5" x2="290" y2="44.5" fill="rgb(0, 0, 0)" stroke="rgb(60, 60, 60)" stroke-width="1px" opacity="0.25"></line><line x1="0" y1="22.25" x2="290" y2="22.25" fill="rgb(0, 0, 0)" stroke="rgb(60, 60, 60)" stroke-width="1px" opacity="0.25"></line><line x1="0" y1="0" x2="290" y2="0" fill="rgb(0, 0, 0)" stroke="rgb(60, 60, 60)" stroke-width="1px" opacity="0.25"></line></g></g></g><g><g><line x1="0" y1="311.5" x2="290" y2="311.5" fill="rgb(0, 0, 0)" stroke="rgb(153, 153, 153)" stroke-width="1.5px"></line></g></g><g><g><line x1="36.25" y1="0" x2="36.25" y2="178" fill="rgb(0, 0, 0)" stroke="rgb(153, 153, 153)" stroke-width="1.5px"></line></g></g><g><g><g><g><g><path stroke="rgb(255, 112, 67)" stroke-width="2px" d="M36.25,171.68631296157835L38.0625,135.85339029182117L39.875,146.23698464482214L41.6875,152.5371244351793L43.5,132.07748300646026L45.3125,117.21499797241464L47.125,118.6093585580234L48.9375,109.96651865308067L50.75,119.60649119097859L52.5625,118.3450121467324L54.375,98.72058408672476L56.1875,94.72808716405765L58,101.37093830223903L59.8125,110.96277891946903L61.625,114.5775621584109L63.4375,106.67941726564668L65.25,103.47160107083393L67.0625,102.36266504546816L68.875,104.17448291022038L70.6875,105.81689823855709L72.5,105.94242682618405L74.3125,100.54113129911691L76.125,99.21236043435395L77.9375,102.79591843949487L79.75,100.74606618524837L81.5625,102.53734703743547L83.375,103.9536647495093L85.1875,102.55424336598647L87,102.9912770600397L88.8125,102.5067131530928L90.625,104.3402901953436L92.4375,105.1247042058401L94.25,101.33176790910083L96.0625,99.07110944444815L97.875,97.54261468185919L99.6875,96.0034458401172L101.5,97.52682274543959L103.3125,97.64941504643915L105.125,97.08160830115419L106.9375,100.04358208921109L108.75,100.74367919233174L110.5625,101.23425707720733L112.375,102.04994738975604L114.1875,100.07981147729016L116,101.23135955872375L117.8125,99.83173918952617L119.625,102.043334715412L121.4375,103.9624887810901L123.25,104.77553472584314L125.0625,98.22688889063262L126.875,99.81787922001926L128.6875,99.26000993605707L130.5,101.01651099847587L132.3125,101.96251951675347L134.125,101.78517994100085L135.9375,98.27389654438312L137.75,100.52713899007338L139.5625,99.81278122093964L141.375,100.55082251193376L143.1875,101.6280735700486L145,99.94783604484412L146.8125,99.2393673333706L148.625,98.5172531961665L150.4375,98.2597226990237L152.25,99.31989272093602L154.0625,98.83290009456933L155.875,99.63857612509183L157.6875,98.1194920626893L159.5,98.42400320234734L161.3125,99.78749350460953L163.125,101.13893209943146L164.9375,100.87009034550971L166.75,98.92911528203295L168.5625,99.09562783415726L170.375,98.07850145901143L172.1875,98.57732096975211L174,99.82431476099316L175.8125,98.03757906227241L177.625,99.08177587224647L179.4375,99.26294804761734L181.25,100.16954497219344L183.0625,100.67614256781572L184.875,100.01610401921L186.6875,98.56772748322138L188.5,98.32785887095646L190.3125,97.31741550170958L192.125,97.31378601815798L193.9375,97.06345319349386L195.75,96.97805827163015L197.5625,96.400181013721L199.375,96.43492374210419L201.1875,95.71754040964913L203,96.17427248995286L204.8125,95.18920690219564L206.625,93.3945149630835L208.4375,94.39569468846915L210.25,94.20337875010696L212.0625,94.4687140991743L213.875,95.4282884362303L215.6875,93.99551669905486L217.5,92.70128944034975L219.3125,93.48903807046509L221.125,93.6128317583705L222.9375,92.9116922591978L224.75,92.70523816407606L226.5625,91.16607284256226L228.375,90.6842727630441L230.1875,91.54282741716811L232,90.28379748452615L233.8125,91.13680038910066L235.625,91.43844088039509L237.4375,91.43594138390013L239.25,92.32277411302456L241.0625,92.80794725096064L242.875,91.99178896576366L244.6875,92.24578725224725L246.5,89.9459092254163L248.3125,90.16509389512453L250.125,90.47302020366855L251.9375,90.35402746368831L253.75,90.8300469546707L255.5625,90.45452096450731L257.375,89.72367092873858L259.1875,90.2485177310476L261,90.59212004308802L262.8125,91.2720054833778L264.625,91.82917738739624L266.4375,91.4251642513493L268.25,91.89739389128059" style="fill: none;" fill="none"></path></g></g></g></g><g opacity="0.2"><g><g><g><path stroke="rgb(255, 112, 67)" stroke-width="2px" d="M36.25,171.68631296157835L38.0625,100.05630054473878L39.875,166.97303295135498L41.6875,171.39976816177366L43.5,50.44330921173096L45.3125,43.12521305084229L47.125,126.94628925323487L48.9375,49.70815544128418L50.75,196.3800410270691L52.5625,107.04831619262696L54.375,-96.44758453369141L56.1875,51.0732494354248L58,180.56890468597413L59.8125,234.78733129501342L61.625,164.80661506652834L63.4375,-10.849387359619126L65.25,52.580631256103516L67.0625,83.67951831817626L68.875,136.47913227081298L70.6875,136.7125949859619L72.5,108.42680377960205L74.3125,-11.64665412902832L76.125,70.31323890686035L77.9375,184.23590574264526L79.75,52.15987892150879L81.5625,146.7418327331543L83.375,140.28491573333739L85.1875,65.29429130554199L87,115.05237140655518L88.8125,88.66319103240967L90.625,158.5031726837158L92.4375,129.05633182525636L94.25,-18.060063171386734L96.0625,25.724185943603516L97.875,46.4733226776123L99.6875,43.091313171386716L101.5,151.3655590057373L103.3125,102.100172996521L105.125,75.92055397033691L106.9375,213.2792158126831L108.75,128.18087635040283L110.5625,120.93114013671875L112.375,135.58233871459962L114.1875,17.2018886566162L116,150.77561283111572L117.8125,38.27640991210937L119.625,201.42146406173705L121.4375,192.0307476043701L123.25,142.86040687561035L125.0625,-214.76152496337892L126.875,177.3716215133667L128.6875,71.53623180389404L130.5,189.9747462272644L132.3125,150.7704013824463L134.125,92.46759948730468L135.9375,-89.53537025451661L137.75,223.17759017944337L139.5625,60.25347938537598L141.375,142.11808948516844L143.1875,163.3154956817627L145,2.1488143920898475L146.8125,57.33608665466309L148.625,55.128214836120605L150.4375,82.54391479492188L152.25,165.0112195968628L154.0625,68.2010404586792L155.875,151.06983051300048L157.6875,-0.27357559204103143L159.5,118.4320722579956L161.3125,190.6488988876343L163.125,192.4572546005249L164.9375,82.45372447967529L166.75,-35.838843917846674L168.5625,110.81189880371093L170.375,25.566212844848636L172.1875,134.601584815979L174,191.03669347763062L175.8125,-34.30891876220705L177.625,177.39298505783083L179.4375,113.01764869689941L181.25,169.835790348053L183.0625,140.07212905883787L184.875,48.07960319519043L186.6875,-16.733740997314438L188.5,79.01201248168945L190.3125,15.021601867675786L192.125,97.0148515701294L193.9375,76.21587505340577L195.75,89.78821887969971L197.5625,47.21706600189209L199.375,99.42362728118897L201.1875,33.35050449371337L203,136.2976821899414L204.8125,7.754737472534172L206.625,-67.53602905273436L208.4375,185.0821720123291L210.25,76.60877075195313L212.0625,118.98451976776123L213.875,184.9586420059204L217.5,-30.396088409423843L219.3125,169.12592992782592L221.125,105.61085605621338L222.9375,24.325107192993155L224.75,72.32351703643799L226.5625,-62.1702739715576L228.375,42.25255851745605L230.1875,178.61821870803834L233.8125,179.1796377182007L235.625,122.84251956939697L237.4375,91.17347965240478L239.25,186.23821392059327L241.0625,144.62101078033447L242.875,4.103667831420891L244.6875,119.8240213394165L246.5,-161.81456451416017L248.3125,114.35352802276611L250.125,124.72830009460449L251.9375,77.01103687286377L253.75,144.6296173095703L255.5625,47.679985237121585L257.375,5.82884407043457L259.1875,150.96015243530272L261,130.64181747436524L262.8125,171.11824808120727L264.625,157.75503273010256L266.4375,43.26559963226319L268.25,148.60403442382812" style="fill: none;" fill="none"></path></g></g></g></g></g></g><g transform="translate(40, 178)" clip-path="url(#clip_1)"><clipPath id="clip_1"><rect width="290" height="22"></rect></clipPath><g><g><line x1="0" y1="0" x2="0" y2="5" style="visibility: inherit;" fill="rgb(0, 0, 0)" stroke="rgb(204, 204, 204)" stroke-width="1px"></line><line x1="36.25" y1="0" x2="36.25" y2="5" style="visibility: inherit;" fill="rgb(0, 0, 0)" stroke="rgb(204, 204, 204)" stroke-width="1px"></line><line x1="72.5" y1="0" x2="72.5" y2="5" style="visibility: inherit;" fill="rgb(0, 0, 0)" stroke="rgb(204, 204, 204)" stroke-width="1px"></line><line x1="108.75" y1="0" x2="108.75" y2="5" style="visibility: inherit;" fill="rgb(0, 0, 0)" stroke="rgb(204, 204, 204)" stroke-width="1px"></line><line x1="145" y1="0" x2="145" y2="5" style="visibility: inherit;" fill="rgb(0, 0, 0)" stroke="rgb(204, 204, 204)" stroke-width="1px"></line><line x1="181.25" y1="0" x2="181.25" y2="5" style="visibility: inherit;" fill="rgb(0, 0, 0)" stroke="rgb(204, 204, 204)" stroke-width="1px"></line><line x1="217.5" y1="0" x2="217.5" y2="5" style="visibility: inherit;" fill="rgb(0, 0, 0)" stroke="rgb(204, 204, 204)" stroke-width="1px"></line><line x1="253.75" y1="0" x2="253.75" y2="5" style="visibility: inherit;" fill="rgb(0, 0, 0)" stroke="rgb(204, 204, 204)" stroke-width="1px"></line><line x1="290" y1="0" x2="290" y2="5" style="visibility: inherit;" fill="rgb(0, 0, 0)" stroke="rgb(204, 204, 204)" stroke-width="1px"></line></g><g transform="translate(0, 8)"><text x="0" y="0" dx="0em" dy="0.95em" style="text-anchor: middle; visibility: hidden; font-family: Roboto, sans-serif; font-size: 12px; font-weight: 200;" fill="rgb(50, 49, 63)" stroke="none" stroke-width="1px">-20</text><text x="36.25" y="0" dx="0em" dy="0.95em" style="text-anchor: middle; visibility: inherit; font-family: Roboto, sans-serif; font-size: 12px; font-weight: 200;" fill="rgb(50, 49, 63)" stroke="none" stroke-width="1px">0</text><text x="72.5" y="0" dx="0em" dy="0.95em" style="text-anchor: middle; visibility: inherit; font-family: Roboto, sans-serif; font-size: 12px; font-weight: 200;" fill="rgb(50, 49, 63)" stroke="none" stroke-width="1px">20</text><text x="108.75" y="0" dx="0em" dy="0.95em" style="text-anchor: middle; visibility: inherit; font-family: Roboto, sans-serif; font-size: 12px; font-weight: 200;" fill="rgb(50, 49, 63)" stroke="none" stroke-width="1px">40</text><text x="145" y="0" dx="0em" dy="0.95em" style="text-anchor: middle; visibility: inherit; font-family: Roboto, sans-serif; font-size: 12px; font-weight: 200;" fill="rgb(50, 49, 63)" stroke="none" stroke-width="1px">60</text><text x="181.25" y="0" dx="0em" dy="0.95em" style="text-anchor: middle; visibility: inherit; font-family: Roboto, sans-serif; font-size: 12px; font-weight: 200;" fill="rgb(50, 49, 63)" stroke="none" stroke-width="1px">80</text><text x="217.5" y="0" dx="0em" dy="0.95em" style="text-anchor: middle; visibility: inherit; font-family: Roboto, sans-serif; font-size: 12px; font-weight: 200;" fill="rgb(50, 49, 63)" stroke="none" stroke-width="1px">100</text><text x="253.75" y="0" dx="0em" dy="0.95em" style="text-anchor: middle; visibility: inherit; font-family: Roboto, sans-serif; font-size: 12px; font-weight: 200;" fill="rgb(50, 49, 63)" stroke="none" stroke-width="1px">120</text><text x="290" y="0" dx="0em" dy="0.95em" style="text-anchor: middle; visibility: hidden; font-family: Roboto, sans-serif; font-size: 12px; font-weight: 200;" fill="rgb(50, 49, 63)" stroke="none" stroke-width="1px">140</text></g><line x1="0" y1="0" x2="290" y2="0" fill="rgb(0, 0, 0)" stroke="rgb(204, 204, 204)" stroke-width="1px"></line></g></g></g></g></svg>