<svg viewBox="0 0 330 200" xmlns="http://www.w3.org/2000/svg"><g><g><g><g><g><line x1="40" y1="178" x2="35" y2="178" style="visibility: inherit;" fill="rgb(0, 0, 0)" stroke="rgb(204, 204, 204)" stroke-width="1px"></line><line x1="40" y1="158.2222222222222" x2="35" y2="158.2222222222222" style="visibility: inherit;" fill="rgb(0, 0, 0)" stroke="rgb(204, 204, 204)" stroke-width="1px"></line><line x1="40" y1="138.44444444444446" x2="35" y2="138.44444444444446" style="visibility: inherit;" fill="rgb(0, 0, 0)" stroke="rgb(204, 204, 204)" stroke-width="1px"></line><line x1="40" y1="118.66666666666669" x2="35" y2="118.66666666666669" style="visibility: inherit;" fill="rgb(0, 0, 0)" stroke="rgb(204, 204, 204)" stroke-width="1px"></line><line x1="40" y1="98.8888888888889" x2="35" y2="98.8888888888889" style="visibility: inherit;" fill="rgb(0, 0, 0)" stroke="rgb(204, 204, 204)" stroke-width="1px"></line><line x1="40" y1="79.1111111111111" x2="35" y2="79.1111111111111" style="visibility: inherit;" fill="rgb(0, 0, 0)" stroke="rgb(204, 204, 204)" stroke-width="1px"></line><line x1="40" y1="59.33333333333334" x2="35" y2="59.33333333333334" style="visibility: inherit;" fill="rgb(0, 0, 0)" stroke="rgb(204, 204, 204)" stroke-width="1px"></line><line x1="40" y1="39.55555555555555" x2="35" y2="39.55555555555555" style="visibility: inherit;" fill="rgb(0, 0, 0)" stroke="rgb(204, 204, 204)" stroke-width="1px"></line><line x1="40" y1="19.777777777777786" x2="35" y2="19.777777777777786" style="visibility: inherit;" fill="rgb(0, 0, 0)" stroke="rgb(204, 204, 204)" stroke-width="1px"></line><line x1="40" y1="0" x2="35" y2="0" style="visibility: inherit;" fill="rgb(0, 0, 0)" stroke="rgb(204, 204, 204)" stroke-width="1px"></line></g><g transform="translate(30, 0)"><text x="0" y="178" dx="0em" dy="0.3em" style="text-anchor: end; visibility: hidden; font-family: Roboto, sans-serif; font-size: 12px; font-weight: 200;" fill="rgb(50, 49, 63)" stroke="none" stroke-width="1px">84</text><text x="0" y="158.2222222222222" dx="0em" dy="0.3em" style="text-anchor: end; visibility: inherit; font-family: Roboto, sans-serif; font-size: 12px; font-weight: 200;" fill="rgb(50, 49, 63)" stroke="none" stroke-width="1px">86</text><text x="0" y="138.44444444444446" dx="0em" dy="0.3em" style="text-anchor: end; visibility: hidden; font-family: Roboto, sans-serif; font-size: 12px; font-weight: 200;" fill="rgb(50, 49, 63)" stroke="none" stroke-width="1px">88</text><text x="0" y="118.66666666666669" dx="0em" dy="0.3em" style="text-anchor: end; visibility: inherit; font-family: Roboto, sans-serif; font-size: 12px; font-weight: 200;" fill="rgb(50, 49, 63)" stroke="none" stroke-width="1px">90</text><text x="0" y="98.8888888888889" dx="0em" dy="0.3em" style="text-anchor: end; visibility: hidden; font-family: Roboto, sans-serif; font-size: 12px; font-weight: 200;" fill="rgb(50, 49, 63)" stroke="none" stroke-width="1px">92</text><text x="0" y="79.1111111111111" dx="0em" dy="0.3em" style="text-anchor: end; visibility: inherit; font-family: Roboto, sans-serif; font-size: 12px; font-weight: 200;" fill="rgb(50, 49, 63)" stroke="none" stroke-width="1px">94</text><text x="0" y="59.33333333333334" dx="0em" dy="0.3em" style="text-anchor: end; visibility: hidden; font-family: Roboto, sans-serif; font-size: 12px; font-weight: 200;" fill="rgb(50, 49, 63)" stroke="none" stroke-width="1px">96</text><text x="0" y="39.55555555555555" dx="0em" dy="0.3em" style="text-anchor: end; visibility: inherit; font-family: Roboto, sans-serif; font-size: 12px; font-weight: 200;" fill="rgb(50, 49, 63)" stroke="none" stroke-width="1px">98</text><text x="0" y="19.777777777777786" dx="0em" dy="0.3em" style="text-anchor: end; visibility: hidden; font-family: Roboto, sans-serif; font-size: 12px; font-weight: 200;" fill="rgb(50, 49, 63)" stroke="none" stroke-width="1px">100</text><text x="0" y="0" dx="0em" dy="0.3em" style="text-anchor: end; visibility: hidden; font-family: Roboto, sans-serif; font-size: 12px; font-weight: 200;" fill="rgb(50, 49, 63)" stroke="none" stroke-width="1px">102</text></g><line x1="40" y1="0" x2="40" y2="178" fill="rgb(0, 0, 0)" stroke="rgb(204, 204, 204)" stroke-width="1px"></line></g></g><g transform="translate(40, 0)" clip-path="url(#clip_0)"><clipPath id="clip_0"><rect width="290" height="178"></rect></clipPath><g><g><g><line x1="0" y1="0" x2="0" y2="178" fill="rgb(0, 0, 0)" stroke="rgb(60, 60, 60)" stroke-width="1px" opacity="0.25"></line><line x1="36.25" y1="0" x2="36.25" y2="178" fill="rgb(0, 0, 0)" stroke="rgb(60, 60, 60)" stroke-width="1px" opacity="0.25"></line><line x1="72.5" y1="0" x2="72.5" y2="178" fill="rgb(0, 0, 0)" stroke="rgb(60, 60, 60)" stroke-width="1px" opacity="0.25"></line><line x1="108.75" y1="0" x2="108.75" y2="178" fill="rgb(0, 0, 0)" stroke="rgb(60, 60, 60)" stroke-width="1px" opacity="0.25"></line><line x1="145" y1="0" x2="145" y2="178" fill="rgb(0, 0, 0)" stroke="rgb(60, 60, 60)" stroke-width="1px" opacity="0.25"></line><line x1="181.25" y1="0" x2="181.25" y2="178" fill="rgb(0, 0, 0)" stroke="rgb(60, 60, 60)" stroke-width="1px" opacity="0.25"></line><line x1="217.5" y1="0" x2="217.5" y2="178" fill="rgb(0, 0, 0)" stroke="rgb(60, 60, 60)" stroke-width="1px" opacity="0.25"></line><line x1="253.75" y1="0" x2="253.75" y2="178" fill="rgb(0, 0, 0)" stroke="rgb(60, 60, 60)" stroke-width="1px" opacity="0.25"></line><line x1="290" y1="0" x2="290" y2="178" fill="rgb(0, 0, 0)" stroke="rgb(60, 60, 60)" stroke-width="1px" opacity="0.25"></line></g><g><line x1="0" y1="178" x2="290" y2="178" fill="rgb(0, 0, 0)" stroke="rgb(60, 60, 60)" stroke-width="1px" opacity="0.25"></line><line x1="0" y1="158.2222222222222" x2="290" y2="158.2222222222222" fill="rgb(0, 0, 0)" stroke="rgb(60, 60, 60)" stroke-width="1px" opacity="0.25"></line><line x1="0" y1="138.44444444444446" x2="290" y2="138.44444444444446" fill="rgb(0, 0, 0)" stroke="rgb(60, 60, 60)" stroke-width="1px" opacity="0.25"></line><line x1="0" y1="118.66666666666669" x2="290" y2="118.66666666666669" fill="rgb(0, 0, 0)" stroke="rgb(60, 60, 60)" stroke-width="1px" opacity="0.25"></line><line x1="0" y1="98.8888888888889" x2="290" y2="98.8888888888889" fill="rgb(0, 0, 0)" stroke="rgb(60, 60, 60)" stroke-width="1px" opacity="0.25"></line><line x1="0" y1="79.1111111111111" x2="290" y2="79.1111111111111" fill="rgb(0, 0, 0)" stroke="rgb(60, 60, 60)" stroke-width="1px" opacity="0.25"></line><line x1="0" y1="59.33333333333334" x2="290" y2="59.33333333333334" fill="rgb(0, 0, 0)" stroke="rgb(60, 60, 60)" stroke-width="1px" opacity="0.25"></line><line x1="0" y1="39.55555555555555" x2="290" y2="39.55555555555555" fill="rgb(0, 0, 0)" stroke="rgb(60, 60, 60)" stroke-width="1px" opacity="0.25"></line><line x1="0" y1="19.777777777777786" x2="290" y2="19.777777777777786" fill="rgb(0, 0, 0)" stroke="rgb(60, 60, 60)" stroke-width="1px" opacity="0.25"></line><line x1="0" y1="0" x2="290" y2="0" fill="rgb(0, 0, 0)" stroke="rgb(60, 60, 60)" stroke-width="1px" opacity="0.25"></line></g></g></g><g><g><line x1="0" y1="1008.6666666666667" x2="290" y2="1008.6666666666667" fill="rgb(0, 0, 0)" stroke="rgb(153, 153, 153)" stroke-width="1.5px"></line></g></g><g><g><line x1="36.25" y1="0" x2="36.25" y2="178" fill="rgb(0, 0, 0)" stroke="rgb(153, 153, 153)" stroke-width="1.5px"></line></g></g><g><g><g><g><g><path stroke="rgb(255, 112, 67)" stroke-width="2px" d="M43.5,211.23325780649L45.3125,145.17776876628724L47.125,151.37492692454842L48.9375,112.96230512480302L50.75,155.80662751546038L52.5625,150.20005398547733L54.375,62.980373718776704L56.1875,45.23594295136738L58,74.75972578772897L59.8125,117.39012853097353L61.625,133.45583181515954L63.4375,98.3529656250964L65.25,84.09600475926185L67.0625,79.16740020208069L68.875,87.21992404542388L70.6875,94.51954772692034L72.5,95.07745256081795L74.3125,71.07169466274183L76.125,65.16604637490644L77.9375,81.09297084219945L79.75,71.98251637888164L81.5625,79.94376461082426L83.375,86.23850999781914L85.1875,80.01885940438427L87,81.96123137795428L88.8125,79.80761401374576L90.625,87.9568453126382L92.4375,91.4431298037338L94.25,74.58563515155923L96.0625,64.53826419754732L97.875,57.74495414159637L99.6875,50.90420373385421L101.5,57.67476775750923L103.3125,58.219622428618386L105.125,55.6960368940186L106.9375,68.86036484093816L108.75,71.97190752147445L110.5625,74.15225367647702L112.375,77.77754395447128L114.1875,69.0213843435119L116,74.13937581655007L117.8125,67.91884084233861L119.625,77.74815429072004L121.4375,86.27772791595602L123.25,89.89126544819177L125.0625,60.78617284725613L126.875,67.85724097786343L128.6875,65.3778219380315L130.5,73.18449332655943L132.3125,77.38897563001544L134.125,76.60079973778153L135.9375,60.99509575281384L137.75,71.00950662254841L139.5625,67.83458320417618L141.375,71.11476671970561L143.1875,75.90254920021604L145,68.43482686597392L146.8125,65.2860770372026L148.625,62.076680871851124L150.4375,60.93210088454977L152.25,65.64396764860452L154.0625,63.47955597586365L155.875,67.06033833374147L157.6875,60.308853611952514L159.5,61.662236454877025L161.3125,67.72219335382012L163.125,73.72858710858428L164.9375,72.53373486893202L166.75,63.90717903125761L168.5625,64.64723481847669L170.375,60.12667315116194L172.1875,62.34364875445379L174,67.88584338219182L175.8125,59.944795832321844L177.625,64.58567054331762L179.4375,65.39088021163265L181.25,69.42019987641525L183.0625,71.6717447458476L184.875,68.7382400853778L186.6875,62.30101103653948L188.5,61.23492831536204L190.3125,56.74406889648701L192.125,56.727937858479905L193.9375,55.615347526639326L195.75,55.23581454057839L197.5625,52.667471172093336L199.375,52.821883298240834L201.1875,49.63351293177389L203,51.663433288679364L204.8125,47.28536400975838L206.625,39.308955391482186L208.4375,43.758643059862926L210.25,42.903905556030935L212.0625,44.08317377410806L213.875,48.34794860546801L215.6875,41.98007421802164L217.5,36.2279530682211L219.3125,39.729058090955945L221.125,40.27925225942444L222.9375,37.16307670754583L224.75,36.245502951449154L226.5625,29.40476818916556L228.375,27.263434502418296L230.1875,31.079232965191622L232,25.48354437567173L233.8125,29.274668396002884L235.625,30.615292801755928L237.4375,30.60418392844502L239.25,34.545662724553665L241.0625,36.701987782047254L242.875,33.07461762561625L244.6875,34.20349889887676L246.5,23.981818779628004L248.3125,24.95597286722016L250.125,26.32453423852698L251.9375,25.795677616392435L253.75,27.911319798536454L255.5625,26.24231539781024L257.375,22.994093016615953L259.1875,25.32674547132268L261,26.853866858168928L262.8125,29.875579926123525L264.625,32.351899499538845L266.4375,30.5562855615524L268.25,32.655083961247016" style="fill: none;" fill="none"></path></g></g></g></g><g opacity="0.2"><g><g><g><path stroke="rgb(255, 112, 67)" stroke-width="2px" d="M36.25,387.2725020514594L38.0625,68.91689130995009L39.875,366.32459089491107L50.75,497.0224045647515L52.5625,99.99251641167534L54.375,-804.4337090386285L70.6875,231.83375549316406L72.5,106.11912790934247L74.3125,-427.5406850179037L85.1875,-85.5809275309245L87,135.56609514024524L88.8125,18.28084903293186L90.625,328.6807674831814L101.5,296.9580400254991L103.3125,78.00076887342665L105.125,-38.35309346516926L108.75,193.91500600179035L110.5625,161.69395616319446L112.375,226.81039428710938L132.3125,294.31289503309466L134.125,35.1893310546875L135.9375,-773.7127566867404L157.6875,-376.99366929796L159.5,150.5869878133138L161.3125,471.5506617228191L166.75,-535.061528523763L168.5625,116.71955023871529L170.375,-262.15016513400604L177.625,412.6354891459148L179.4375,126.52288309733075L181.25,379.04795710245776L190.3125,-309.0151028103299L192.125,55.39934031168619L193.9375,-37.0405553181966L195.75,23.28097279866537L197.5625,-165.92415110270184L199.375,66.10501013861763L201.1875,-227.5533133612739L210.25,-35.29435221354168L212.0625,153.0423100789388L213.875,446.260631137424L219.3125,375.8930219014485L221.125,93.60380469428169L222.9375,-267.6661902533637L233.8125,420.57616763644745L235.625,170.18897586398654L237.4375,29.437687344021263L239.25,451.94761742485895L242.875,-357.5392540825738L244.6875,156.77342817518445L246.5,-1094.9536200629339L248.3125,132.46012454562717L250.125,178.57022264268662" style="fill: none;" fill="none"></path></g></g></g></g></g></g><g transform="translate(40, 178)" clip-path="url(#clip_1)"><clipPath id="clip_1"><rect width="290" height="22"></rect></clipPath><g><g><line x1="0" y1="0" x2="0" y2="5" style="visibility: inherit;" fill="rgb(0, 0, 0)" stroke="rgb(204, 204, 204)" stroke-width="1px"></line><line x1="36.25" y1="0" x2="36.25" y2="5" style="visibility: inherit;" fill="rgb(0, 0, 0)" stroke="rgb(204, 204, 204)" stroke-width="1px"></line><line x1="72.5" y1="0" x2="72.5" y2="5" style="visibility: inherit;" fill="rgb(0, 0, 0)" stroke="rgb(204, 204, 204)" stroke-width="1px"></line><line x1="108.75" y1="0" x2="108.75" y2="5" style="visibility: inherit;" fill="rgb(0, 0, 0)" stroke="rgb(204, 204, 204)" stroke-width="1px"></line><line x1="145" y1="0" x2="145" y2="5" style="visibility: inherit;" fill="rgb(0, 0, 0)" stroke="rgb(204, 204, 204)" stroke-width="1px"></line><line x1="181.25" y1="0" x2="181.25" y2="5" style="visibility: inherit;" fill="rgb(0, 0, 0)" stroke="rgb(204, 204, 204)" stroke-width="1px"></line><line x1="217.5" y1="0" x2="217.5" y2="5" style="visibility: inherit;" fill="rgb(0, 0, 0)" stroke="rgb(204, 204, 204)" stroke-width="1px"></line><line x1="253.75" y1="0" x2="253.75" y2="5" style="visibility: inherit;" fill="rgb(0, 0, 0)" stroke="rgb(204, 204, 204)" stroke-width="1px"></line><line x1="290" y1="0" x2="290" y2="5" style="visibility: inherit;" fill="rgb(0, 0, 0)" stroke="rgb(204, 204, 204)" stroke-width="1px"></line></g><g transform="translate(0, 8)"><text x="0" y="0" dx="0em" dy="0.95em" style="text-anchor: middle; visibility: hidden; font-family: Roboto, sans-serif; font-size: 12px; font-weight: 200;" fill="rgb(50, 49, 63)" stroke="none" stroke-width="1px">-20</text><text x="36.25" y="0" dx="0em" dy="0.95em" style="text-anchor: middle; visibility: inherit; font-family: Roboto, sans-serif; font-size: 12px; font-weight: 200;" fill="rgb(50, 49, 63)" stroke="none" stroke-width="1px">0</text><text x="72.5" y="0" dx="0em" dy="0.95em" style="text-anchor: middle; visibility: inherit; font-family: Roboto, sans-serif; font-size: 12px; font-weight: 200;" fill="rgb(50, 49, 63)" stroke="none" stroke-width="1px">20</text><text x="108.75" y="0" dx="0em" dy="0.95em" style="text-anchor: middle; visibility: inherit; font-family: Roboto, sans-serif; font-size: 12px; font-weight: 200;" fill="rgb(50, 49, 63)" stroke="none" stroke-width="1px">40</text><text x="145" y="0" dx="0em" dy="0.95em" style="text-anchor: middle; visibility: inherit; font-family: Roboto, sans-serif; font-size: 12px; font-weight: 200;" fill="rgb(50, 49, 63)" stroke="none" stroke-width="1px">60</text><text x="181.25" y="0" dx="0em" dy="0.95em" style="text-anchor: middle; visibility: inherit; font-family: Roboto, sans-serif; font-size: 12px; font-weight: 200;" fill="rgb(50, 49, 63)" stroke="none" stroke-width="1px">80</text><text x="217.5" y="0" dx="0em" dy="0.95em" style="text-anchor: middle; visibility: inherit; font-family: Roboto, sans-serif; font-size: 12px; font-weight: 200;" fill="rgb(50, 49, 63)" stroke="none" stroke-width="1px">100</text><text x="253.75" y="0" dx="0em" dy="0.95em" style="text-anchor: middle; visibility: inherit; font-family: Roboto, sans-serif; font-size: 12px; font-weight: 200;" fill="rgb(50, 49, 63)" stroke="none" stroke-width="1px">120</text><text x="290" y="0" dx="0em" dy="0.95em" style="text-anchor: middle; visibility: hidden; font-family: Roboto, sans-serif; font-size: 12px; font-weight: 200;" fill="rgb(50, 49, 63)" stroke="none" stroke-width="1px">140</text></g><line x1="0" y1="0" x2="290" y2="0" fill="rgb(0, 0, 0)" stroke="rgb(204, 204, 204)" stroke-width="1px"></line></g></g></g></g></svg>