<svg viewBox="0 0 330 200" xmlns="http://www.w3.org/2000/svg"><g><g><g><g><g><line x1="40" y1="160.54635675859512" x2="35" y2="160.54635675859512" style="visibility: inherit;" fill="rgb(0, 0, 0)" stroke="rgb(204, 204, 204)" stroke-width="1px"></line><line x1="40" y1="136.83121603083165" x2="35" y2="136.83121603083165" style="visibility: inherit;" fill="rgb(0, 0, 0)" stroke="rgb(204, 204, 204)" stroke-width="1px"></line><line x1="40" y1="113.1160753030682" x2="35" y2="113.1160753030682" style="visibility: inherit;" fill="rgb(0, 0, 0)" stroke="rgb(204, 204, 204)" stroke-width="1px"></line><line x1="40" y1="89.40093457530476" x2="35" y2="89.40093457530476" style="visibility: inherit;" fill="rgb(0, 0, 0)" stroke="rgb(204, 204, 204)" stroke-width="1px"></line><line x1="40" y1="65.68579384754126" x2="35" y2="65.68579384754126" style="visibility: inherit;" fill="rgb(0, 0, 0)" stroke="rgb(204, 204, 204)" stroke-width="1px"></line><line x1="40" y1="41.97065311977782" x2="35" y2="41.97065311977782" style="visibility: inherit;" fill="rgb(0, 0, 0)" stroke="rgb(204, 204, 204)" stroke-width="1px"></line><line x1="40" y1="18.255512392014353" x2="35" y2="18.255512392014353" style="visibility: inherit;" fill="rgb(0, 0, 0)" stroke="rgb(204, 204, 204)" stroke-width="1px"></line></g><g transform="translate(30, 0)"><text x="0" y="160.54635675859512" dx="0em" dy="0.3em" style="text-anchor: end; visibility: inherit; font-family: Roboto, sans-serif; font-size: 12px; font-weight: 200;" fill="rgb(50, 49, 63)" stroke="none" stroke-width="1px">80</text><text x="0" y="136.83121603083165" dx="0em" dy="0.3em" style="text-anchor: end; visibility: inherit; font-family: Roboto, sans-serif; font-size: 12px; font-weight: 200;" fill="rgb(50, 49, 63)" stroke="none" stroke-width="1px">85</text><text x="0" y="113.1160753030682" dx="0em" dy="0.3em" style="text-anchor: end; visibility: inherit; font-family: Roboto, sans-serif; font-size: 12px; font-weight: 200;" fill="rgb(50, 49, 63)" stroke="none" stroke-width="1px">90</text><text x="0" y="89.40093457530476" dx="0em" dy="0.3em" style="text-anchor: end; visibility: inherit; font-family: Roboto, sans-serif; font-size: 12px; font-weight: 200;" fill="rgb(50, 49, 63)" stroke="none" stroke-width="1px">95</text><text x="0" y="65.68579384754126" dx="0em" dy="0.3em" style="text-anchor: end; visibility: inherit; font-family: Roboto, sans-serif; font-size: 12px; font-weight: 200;" fill="rgb(50, 49, 63)" stroke="none" stroke-width="1px">100</text><text x="0" y="41.97065311977782" dx="0em" dy="0.3em" style="text-anchor: end; visibility: inherit; font-family: Roboto, sans-serif; font-size: 12px; font-weight: 200;" fill="rgb(50, 49, 63)" stroke="none" stroke-width="1px">105</text><text x="0" y="18.255512392014353" dx="0em" dy="0.3em" style="text-anchor: end; visibility: inherit; font-family: Roboto, sans-serif; font-size: 12px; font-weight: 200;" fill="rgb(50, 49, 63)" stroke="none" stroke-width="1px">110</text></g><line x1="40" y1="0" x2="40" y2="178" fill="rgb(0, 0, 0)" stroke="rgb(204, 204, 204)" stroke-width="1px"></line></g></g><g transform="translate(40, 0)" clip-path="url(#clip_0)"><clipPath id="clip_0"><rect width="290" height="178"></rect></clipPath><g><g><g><line x1="17.354797385258703" y1="0" x2="17.354797385258703" y2="178" fill="rgb(0, 0, 0)" stroke="rgb(60, 60, 60)" stroke-width="1px" opacity="0.25"></line><line x1="60.8214527921848" y1="0" x2="60.8214527921848" y2="178" fill="rgb(0, 0, 0)" stroke="rgb(60, 60, 60)" stroke-width="1px" opacity="0.25"></line><line x1="104.28810819911088" y1="0" x2="104.28810819911088" y2="178" fill="rgb(0, 0, 0)" stroke="rgb(60, 60, 60)" stroke-width="1px" opacity="0.25"></line><line x1="147.75476360603696" y1="0" x2="147.75476360603696" y2="178" fill="rgb(0, 0, 0)" stroke="rgb(60, 60, 60)" stroke-width="1px" opacity="0.25"></line><line x1="191.22141901296308" y1="0" x2="191.22141901296308" y2="178" fill="rgb(0, 0, 0)" stroke="rgb(60, 60, 60)" stroke-width="1px" opacity="0.25"></line><line x1="234.68807441988915" y1="0" x2="234.68807441988915" y2="178" fill="rgb(0, 0, 0)" stroke="rgb(60, 60, 60)" stroke-width="1px" opacity="0.25"></line><line x1="278.15472982681524" y1="0" x2="278.15472982681524" y2="178" fill="rgb(0, 0, 0)" stroke="rgb(60, 60, 60)" stroke-width="1px" opacity="0.25"></line></g><g><line x1="0" y1="160.54635675859512" x2="290" y2="160.54635675859512" fill="rgb(0, 0, 0)" stroke="rgb(60, 60, 60)" stroke-width="1px" opacity="0.25"></line><line x1="0" y1="136.83121603083165" x2="290" y2="136.83121603083165" fill="rgb(0, 0, 0)" stroke="rgb(60, 60, 60)" stroke-width="1px" opacity="0.25"></line><line x1="0" y1="113.1160753030682" x2="290" y2="113.1160753030682" fill="rgb(0, 0, 0)" stroke="rgb(60, 60, 60)" stroke-width="1px" opacity="0.25"></line><line x1="0" y1="89.40093457530476" x2="290" y2="89.40093457530476" fill="rgb(0, 0, 0)" stroke="rgb(60, 60, 60)" stroke-width="1px" opacity="0.25"></line><line x1="0" y1="65.68579384754126" x2="290" y2="65.68579384754126" fill="rgb(0, 0, 0)" stroke="rgb(60, 60, 60)" stroke-width="1px" opacity="0.25"></line><line x1="0" y1="41.97065311977782" x2="290" y2="41.97065311977782" fill="rgb(0, 0, 0)" stroke="rgb(60, 60, 60)" stroke-width="1px" opacity="0.25"></line><line x1="0" y1="18.255512392014353" x2="290" y2="18.255512392014353" fill="rgb(0, 0, 0)" stroke="rgb(60, 60, 60)" stroke-width="1px" opacity="0.25"></line></g></g></g><g><g><line x1="0" y1="539.9886084028105" x2="290" y2="539.9886084028105" fill="rgb(0, 0, 0)" stroke="rgb(153, 153, 153)" stroke-width="1.5px"></line></g></g><g><g><line x1="104.28810819911088" y1="0" x2="104.28810819911088" y2="178" fill="rgb(0, 0, 0)" stroke="rgb(153, 153, 153)" stroke-width="1.5px"></line></g></g><g><g><g><g><g><path stroke="rgb(255, 112, 67)" stroke-width="2px" d="M104.28810819911088,241.94804536607822L105.15744130724941,165.5630742379562L106.02677441538793,187.69776199898348L106.89610752352644,201.1277576603679L107.76544063166497,157.51398006741042L108.63477373980349,125.83164980703556L109.50410684794203,128.80400553853744L110.37343995608053,110.38008062768384L111.24277306421905,130.92959122076465L112.11210617235757,128.2404988109289L112.9814392804961,86.40714392149505L113.85077238863461,77.89634604498154L114.72010549677313,92.05689881581792L115.58943860491166,112.50380668780782L116.45877171305018,120.20943304393066L117.3281048211887,103.37297303312889L118.19743792932722,96.53487752851915L119.06677103746574,94.17096077349571L119.93610414560428,98.03320936996084L120.80543725374278,101.53434291107914L121.67477036188131,101.80193195565718L122.54410347001983,90.28800085124045L123.41343657815835,87.45546259930286L124.28276968629687,95.09452618564175L125.1521027944354,90.72486014693803L126.02143590257393,94.54333003391015L126.89076901071245,97.56249172892635L127.76010211885095,94.57934790441529L128.6294352269895,95.51097177472964L129.498768335128,94.47802784260911L130.36810144326654,98.38666043516405L131.23743455140504,100.05879424619813L132.10676765954358,91.97339936542384L132.97610076768208,87.1543581405566L133.84543387582062,83.89606884649398L134.71476698395915,80.61502563879063L135.58410009209766,83.86240520653399L136.4534332002362,84.12373497465488L137.3227663083747,82.91334244695997L138.19209941651323,89.22737617421535L139.06143252465176,90.71977179880913L139.93076563279027,91.76553571591053L140.8000987409288,93.50434115881984L141.6694318490673,89.30460628988062L142.53876495720584,91.75935908142971L143.40809806534435,88.77579107954523L144.27743117348288,93.49024493386203L145.1467642816214,97.58130189977803L146.01609738975992,99.31447034903248L146.88543049789845,85.35473483817411L147.75476360603696,88.74624580967208L148.6240967141755,87.55703694883074L149.49342982231403,91.30136682601974L150.36276293045256,93.31797133304141L151.23209603859104,92.93993690647284L152.10142914672957,85.45494096167744L152.9707622548681,90.25817347343607L153.8400953630066,88.7353784150111L154.70942847114515,90.30865959063588L155.57876157928368,92.60503356297976L156.44809468742216,89.02327451881857L157.3174277955607,87.51303315308262L158.18676090369922,85.97370386002174L159.05609401183776,85.42472660326376L159.92542711997626,87.68468896416326L160.7947602281148,86.6465677356087L161.66409333625333,88.36402575312127L162.53342644439184,85.12579723022883L163.40275955253037,85.77492303069278L164.27209266066887,88.68147263959963L165.14142576880738,91.56233164734195L166.0107588769459,90.98924220664502L166.88009198508445,86.85166946242654L167.74942509322298,87.20662394391567L168.6187582013615,85.03841764058956L169.48809130950002,86.10175021541824L170.35742441763855,88.7599644397714L171.22675752577703,84.95118344754837L172.09609063391557,87.17709574381949L172.9654237420541,87.56330011549372L173.83475685019263,89.4958910053525L174.70408995833114,90.5758041085012L175.57342306646967,89.16880122617013L176.4427561746082,86.08129979895567L177.3120892827467,85.5699723476266L178.18142239088522,83.41601219489623L179.05075549902375,83.4082752319124L179.92008860716226,82.87464123949097L180.7894217153008,82.69260505167667L181.65875482343932,81.46074523192931L182.52808793157786,81.53480623803031L183.39742103971636,80.00556159219448L184.2667541478549,80.97917647392815L185.1360872559934,78.87931408833357L186.0054203641319,75.05357279403901L186.87475347227044,77.18778565527988L187.74408658040898,76.77782614584603L188.61341968854748,77.34344099017706L189.48275279668601,79.38896372653959L190.35208590482455,76.33472701841576L191.22141901296308,73.57582530390795L192.09075212110156,75.25506751705744L192.9600852292401,75.51895827929435L193.82941833737863,74.02434058107647L194.69875144551713,73.58424279054746L195.56808455365567,70.3032070869076L196.4374176617942,69.27615480030803L197.30675076993273,71.10633407626551L198.17608387807124,68.4224624328434L199.04541698620974,70.24080705515131L199.91475009434828,70.88381350011663L200.78408320248678,70.87848532833L201.65341631062532,72.76894492142418L202.52274941876385,73.80318755005197L203.39208252690236,72.0633845307642L204.2614156350409,72.6048321809727L205.13074874317942,67.70218669216486L206.00008185131793,68.16942222362545L206.86941495945644,68.82582813292005L207.73874806759497,68.57217154197944L208.6080811757335,69.58690135931032L209.477414283872,68.78639334100401L210.34674739201054,67.22844175006955L211.21608050014908,68.34725665139763L212.08541360828755,69.07971302752553L212.9547467164261,70.52902349001809L213.82407982456462,71.71674574739818L214.69341293270315,70.85551173596282L215.56274604084166,71.86216273522497" style="fill: none;" fill="none"></path></g></g></g></g><g opacity="0.2"><g><g><g><path stroke="rgb(255, 112, 67)" stroke-width="2px" d="M104.28810819911088,241.94804536607822L105.15744130724941,89.25448808097299L106.02677441538793,231.9007555924331L108.63477373980349,-32.10539971249846L109.50410684794203,146.5758243856881L110.37343995608053,-18.072554301973575L111.24277306421905,294.5876171563016L112.11210617235757,104.15935415381726L112.9814392804961,-329.63245917181183L118.19743792932722,-11.949303229116277L119.06677103746574,54.34413345887275L119.93610414560428,166.89696718996157L120.80543725374278,167.39463920294517L121.67477036188131,107.09787344519609L122.54410347001983,-148.86248178827378L123.41343657815835,25.851261796314155L124.28276968629687,268.6999877372356L126.02143590257393,188.7739456808656L126.89076901071245,175.00974834889743L127.76010211885095,15.152381016940149L128.6294352269895,121.22158298897202L129.498768335128,64.96781883048263L130.36810144326654,213.8455710358888L131.23743455140504,151.07379800699698L132.10676765954358,-162.53393329247515L135.58410009209766,198.63033392724435L136.4534332002362,93.61140698646642L137.3227663083747,37.80436434330332L138.19209941651323,330.611554974181L139.06143252465176,149.20759128456623L139.93076563279027,133.75334278598814L140.8000987409288,164.9852741212558L141.6694318490673,-87.36609959029934L147.75476360603696,254.067406479464L148.6240967141755,28.458313361456536L149.49342982231403,280.9334627670719L150.36276293045256,197.36163758643104L151.23209603859104,73.07766888834587L152.10142914672957,-314.8977055204782L152.9707622548681,351.711900240141L153.8400953630066,4.406892111868276L154.70942847114515,178.9175212480539L158.18676090369922,-6.518624297354957L159.05609401183776,51.92336965078987L159.92542711997626,227.71876190403867L160.7947602281148,21.348692498014863L161.66409333625333,197.9999300780342L162.53342644439184,-124.6185125287178L163.40275955253037,128.42608467972724L164.27209266066887,282.37055267382857L165.14142576880738,286.22542100794595L166.0107588769459,51.73111113228613L166.88009198508445,-200.43292541565262L167.74942509322298,112.18217584032695L168.6187582013615,-69.53588608768652L169.48809130950002,162.89460295495556L170.35742441763855,283.1972136423884L172.09609063391557,254.11294710538857L172.9654237420541,116.88416857086303L173.83475685019263,238.0032899324006L174.70408995833114,174.55615141130204L175.57342306646967,-21.544135937805375L176.4427561746082,-159.70661490969067L177.3120892827467,44.394420401799294L178.18142239088522,-92.01381267134256L179.05075549902375,82.77103725408102L179.92008860716226,38.433899718121594L180.7894217153008,67.36603849080946L181.65875482343932,-23.382804784726723L182.52808793157786,87.90581972324023L183.39742103971636,-52.94212681408819L184.2667541478549,166.5101704076754L185.1360872559934,-107.50457328081286L186.87475347227044,270.503971888131L187.74408658040898,39.27143470979654L188.61341968854748,129.60373595512448L189.48275279668601,270.2406432152246L192.09075212110156,236.49008186383847L192.9600852292401,101.09512319421295L193.82941833737863,-72.18154857683484L194.69875144551713,30.136567750909997L195.56808455365567,-256.56358332909224L199.04541698620974,257.92155108492153L199.91475009434828,137.8278265819537L200.78408320248678,70.31899616895339L201.65341631062532,272.9683041615402L203.39208252690236,-115.28755128943004L204.2614156350409,131.39329981247133L205.13074874317942,-468.975122469404L206.00008185131793,119.73185991542378L206.86941495945644,141.84774123696243L207.73874806759497,40.12894461248485L208.6080811757335,184.2713401961333L211.21608050014908,197.7661295344519L212.08541360828755,154.45357466231982L212.9547467164261,240.73710257232537" style="fill: none;" fill="none"></path></g></g></g></g></g></g><g transform="translate(40, 178)" clip-path="url(#clip_1)"><clipPath id="clip_1"><rect width="290" height="22"></rect></clipPath><g><g><line x1="17.354797385258703" y1="0" x2="17.354797385258703" y2="5" style="visibility: inherit;" fill="rgb(0, 0, 0)" stroke="rgb(204, 204, 204)" stroke-width="1px"></line><line x1="60.8214527921848" y1="0" x2="60.8214527921848" y2="5" style="visibility: inherit;" fill="rgb(0, 0, 0)" stroke="rgb(204, 204, 204)" stroke-width="1px"></line><line x1="104.28810819911088" y1="0" x2="104.28810819911088" y2="5" style="visibility: inherit;" fill="rgb(0, 0, 0)" stroke="rgb(204, 204, 204)" stroke-width="1px"></line><line x1="147.75476360603696" y1="0" x2="147.75476360603696" y2="5" style="visibility: inherit;" fill="rgb(0, 0, 0)" stroke="rgb(204, 204, 204)" stroke-width="1px"></line><line x1="191.22141901296308" y1="0" x2="191.22141901296308" y2="5" style="visibility: inherit;" fill="rgb(0, 0, 0)" stroke="rgb(204, 204, 204)" stroke-width="1px"></line><line x1="234.68807441988915" y1="0" x2="234.68807441988915" y2="5" style="visibility: inherit;" fill="rgb(0, 0, 0)" stroke="rgb(204, 204, 204)" stroke-width="1px"></line><line x1="278.15472982681524" y1="0" x2="278.15472982681524" y2="5" style="visibility: inherit;" fill="rgb(0, 0, 0)" stroke="rgb(204, 204, 204)" stroke-width="1px"></line></g><g transform="translate(0, 8)"><text x="17.354797385258703" y="0" dx="0em" dy="0.95em" style="text-anchor: middle; visibility: inherit; font-family: Roboto, sans-serif; font-size: 12px; font-weight: 200;" fill="rgb(50, 49, 63)" stroke="none" stroke-width="1px">-100</text><text x="60.8214527921848" y="0" dx="0em" dy="0.95em" style="text-anchor: middle; visibility: inherit; font-family: Roboto, sans-serif; font-size: 12px; font-weight: 200;" fill="rgb(50, 49, 63)" stroke="none" stroke-width="1px">-50</text><text x="104.28810819911088" y="0" dx="0em" dy="0.95em" style="text-anchor: middle; visibility: inherit; font-family: Roboto, sans-serif; font-size: 12px; font-weight: 200;" fill="rgb(50, 49, 63)" stroke="none" stroke-width="1px">0</text><text x="147.75476360603696" y="0" dx="0em" dy="0.95em" style="text-anchor: middle; visibility: inherit; font-family: Roboto, sans-serif; font-size: 12px; font-weight: 200;" fill="rgb(50, 49, 63)" stroke="none" stroke-width="1px">50</text><text x="191.22141901296308" y="0" dx="0em" dy="0.95em" style="text-anchor: middle; visibility: inherit; font-family: Roboto, sans-serif; font-size: 12px; font-weight: 200;" fill="rgb(50, 49, 63)" stroke="none" stroke-width="1px">100</text><text x="234.68807441988915" y="0" dx="0em" dy="0.95em" style="text-anchor: middle; visibility: inherit; font-family: Roboto, sans-serif; font-size: 12px; font-weight: 200;" fill="rgb(50, 49, 63)" stroke="none" stroke-width="1px">150</text><text x="278.15472982681524" y="0" dx="0em" dy="0.95em" style="text-anchor: middle; visibility: inherit; font-family: Roboto, sans-serif; font-size: 12px; font-weight: 200;" fill="rgb(50, 49, 63)" stroke="none" stroke-width="1px">200</text></g><line x1="0" y1="0" x2="290" y2="0" fill="rgb(0, 0, 0)" stroke="rgb(204, 204, 204)" stroke-width="1px"></line></g></g></g></g></svg>