<svg viewBox="0 0 330 200" xmlns="http://www.w3.org/2000/svg"><g><g><g><g><g><line x1="40" y1="178" x2="35" y2="178" style="visibility: inherit;" fill="rgb(0, 0, 0)" stroke="rgb(204, 204, 204)" stroke-width="1px"></line><line x1="40" y1="158.2222222222222" x2="35" y2="158.2222222222222" style="visibility: inherit;" fill="rgb(0, 0, 0)" stroke="rgb(204, 204, 204)" stroke-width="1px"></line><line x1="40" y1="138.44444444444446" x2="35" y2="138.44444444444446" style="visibility: inherit;" fill="rgb(0, 0, 0)" stroke="rgb(204, 204, 204)" stroke-width="1px"></line><line x1="40" y1="118.66666666666669" x2="35" y2="118.66666666666669" style="visibility: inherit;" fill="rgb(0, 0, 0)" stroke="rgb(204, 204, 204)" stroke-width="1px"></line><line x1="40" y1="98.8888888888889" x2="35" y2="98.8888888888889" style="visibility: inherit;" fill="rgb(0, 0, 0)" stroke="rgb(204, 204, 204)" stroke-width="1px"></line><line x1="40" y1="79.1111111111111" x2="35" y2="79.1111111111111" style="visibility: inherit;" fill="rgb(0, 0, 0)" stroke="rgb(204, 204, 204)" stroke-width="1px"></line><line x1="40" y1="59.33333333333334" x2="35" y2="59.33333333333334" style="visibility: inherit;" fill="rgb(0, 0, 0)" stroke="rgb(204, 204, 204)" stroke-width="1px"></line><line x1="40" y1="39.55555555555555" x2="35" y2="39.55555555555555" style="visibility: inherit;" fill="rgb(0, 0, 0)" stroke="rgb(204, 204, 204)" stroke-width="1px"></line><line x1="40" y1="19.777777777777786" x2="35" y2="19.777777777777786" style="visibility: inherit;" fill="rgb(0, 0, 0)" stroke="rgb(204, 204, 204)" stroke-width="1px"></line><line x1="40" y1="0" x2="35" y2="0" style="visibility: inherit;" fill="rgb(0, 0, 0)" stroke="rgb(204, 204, 204)" stroke-width="1px"></line></g><g transform="translate(30, 0)"><text x="0" y="178" dx="0em" dy="0.3em" style="text-anchor: end; visibility: hidden; font-family: Roboto, sans-serif; font-size: 12px; font-weight: 200;" fill="rgb(50, 49, 63)" stroke="none" stroke-width="1px">80</text><text x="0" y="158.2222222222222" dx="0em" dy="0.3em" style="text-anchor: end; visibility: inherit; font-family: Roboto, sans-serif; font-size: 12px; font-weight: 200;" fill="rgb(50, 49, 63)" stroke="none" stroke-width="1px">90</text><text x="0" y="138.44444444444446" dx="0em" dy="0.3em" style="text-anchor: end; visibility: hidden; font-family: Roboto, sans-serif; font-size: 12px; font-weight: 200;" fill="rgb(50, 49, 63)" stroke="none" stroke-width="1px">100</text><text x="0" y="118.66666666666669" dx="0em" dy="0.3em" style="text-anchor: end; visibility: inherit; font-family: Roboto, sans-serif; font-size: 12px; font-weight: 200;" fill="rgb(50, 49, 63)" stroke="none" stroke-width="1px">110</text><text x="0" y="98.8888888888889" dx="0em" dy="0.3em" style="text-anchor: end; visibility: hidden; font-family: Roboto, sans-serif; font-size: 12px; font-weight: 200;" fill="rgb(50, 49, 63)" stroke="none" stroke-width="1px">120</text><text x="0" y="79.1111111111111" dx="0em" dy="0.3em" style="text-anchor: end; visibility: inherit; font-family: Roboto, sans-serif; font-size: 12px; font-weight: 200;" fill="rgb(50, 49, 63)" stroke="none" stroke-width="1px">130</text><text x="0" y="59.33333333333334" dx="0em" dy="0.3em" style="text-anchor: end; visibility: hidden; font-family: Roboto, sans-serif; font-size: 12px; font-weight: 200;" fill="rgb(50, 49, 63)" stroke="none" stroke-width="1px">140</text><text x="0" y="39.55555555555555" dx="0em" dy="0.3em" style="text-anchor: end; visibility: inherit; font-family: Roboto, sans-serif; font-size: 12px; font-weight: 200;" fill="rgb(50, 49, 63)" stroke="none" stroke-width="1px">150</text><text x="0" y="19.777777777777786" dx="0em" dy="0.3em" style="text-anchor: end; visibility: hidden; font-family: Roboto, sans-serif; font-size: 12px; font-weight: 200;" fill="rgb(50, 49, 63)" stroke="none" stroke-width="1px">160</text><text x="0" y="0" dx="0em" dy="0.3em" style="text-anchor: end; visibility: hidden; font-family: Roboto, sans-serif; font-size: 12px; font-weight: 200;" fill="rgb(50, 49, 63)" stroke="none" stroke-width="1px">170</text></g><line x1="40" y1="0" x2="40" y2="178" fill="rgb(0, 0, 0)" stroke="rgb(204, 204, 204)" stroke-width="1px"></line></g></g><g transform="translate(40, 0)" clip-path="url(#clip_0)"><clipPath id="clip_0"><rect width="290" height="178"></rect></clipPath><g><g><g><line x1="0" y1="0" x2="0" y2="178" fill="rgb(0, 0, 0)" stroke="rgb(60, 60, 60)" stroke-width="1px" opacity="0.25"></line><line x1="24.166666666666664" y1="0" x2="24.166666666666664" y2="178" fill="rgb(0, 0, 0)" stroke="rgb(60, 60, 60)" stroke-width="1px" opacity="0.25"></line><line x1="48.33333333333333" y1="0" x2="48.33333333333333" y2="178" fill="rgb(0, 0, 0)" stroke="rgb(60, 60, 60)" stroke-width="1px" opacity="0.25"></line><line x1="72.5" y1="0" x2="72.5" y2="178" fill="rgb(0, 0, 0)" stroke="rgb(60, 60, 60)" stroke-width="1px" opacity="0.25"></line><line x1="96.66666666666666" y1="0" x2="96.66666666666666" y2="178" fill="rgb(0, 0, 0)" stroke="rgb(60, 60, 60)" stroke-width="1px" opacity="0.25"></line><line x1="120.83333333333334" y1="0" x2="120.83333333333334" y2="178" fill="rgb(0, 0, 0)" stroke="rgb(60, 60, 60)" stroke-width="1px" opacity="0.25"></line><line x1="145" y1="0" x2="145" y2="178" fill="rgb(0, 0, 0)" stroke="rgb(60, 60, 60)" stroke-width="1px" opacity="0.25"></line><line x1="169.16666666666669" y1="0" x2="169.16666666666669" y2="178" fill="rgb(0, 0, 0)" stroke="rgb(60, 60, 60)" stroke-width="1px" opacity="0.25"></line><line x1="193.33333333333331" y1="0" x2="193.33333333333331" y2="178" fill="rgb(0, 0, 0)" stroke="rgb(60, 60, 60)" stroke-width="1px" opacity="0.25"></line><line x1="217.5" y1="0" x2="217.5" y2="178" fill="rgb(0, 0, 0)" stroke="rgb(60, 60, 60)" stroke-width="1px" opacity="0.25"></line><line x1="241.66666666666669" y1="0" x2="241.66666666666669" y2="178" fill="rgb(0, 0, 0)" stroke="rgb(60, 60, 60)" stroke-width="1px" opacity="0.25"></line><line x1="265.8333333333333" y1="0" x2="265.8333333333333" y2="178" fill="rgb(0, 0, 0)" stroke="rgb(60, 60, 60)" stroke-width="1px" opacity="0.25"></line><line x1="290" y1="0" x2="290" y2="178" fill="rgb(0, 0, 0)" stroke="rgb(60, 60, 60)" stroke-width="1px" opacity="0.25"></line></g><g><line x1="0" y1="178" x2="290" y2="178" fill="rgb(0, 0, 0)" stroke="rgb(60, 60, 60)" stroke-width="1px" opacity="0.25"></line><line x1="0" y1="158.2222222222222" x2="290" y2="158.2222222222222" fill="rgb(0, 0, 0)" stroke="rgb(60, 60, 60)" stroke-width="1px" opacity="0.25"></line><line x1="0" y1="138.44444444444446" x2="290" y2="138.44444444444446" fill="rgb(0, 0, 0)" stroke="rgb(60, 60, 60)" stroke-width="1px" opacity="0.25"></line><line x1="0" y1="118.66666666666669" x2="290" y2="118.66666666666669" fill="rgb(0, 0, 0)" stroke="rgb(60, 60, 60)" stroke-width="1px" opacity="0.25"></line><line x1="0" y1="98.8888888888889" x2="290" y2="98.8888888888889" fill="rgb(0, 0, 0)" stroke="rgb(60, 60, 60)" stroke-width="1px" opacity="0.25"></line><line x1="0" y1="79.1111111111111" x2="290" y2="79.1111111111111" fill="rgb(0, 0, 0)" stroke="rgb(60, 60, 60)" stroke-width="1px" opacity="0.25"></line><line x1="0" y1="59.33333333333334" x2="290" y2="59.33333333333334" fill="rgb(0, 0, 0)" stroke="rgb(60, 60, 60)" stroke-width="1px" opacity="0.25"></line><line x1="0" y1="39.55555555555555" x2="290" y2="39.55555555555555" fill="rgb(0, 0, 0)" stroke="rgb(60, 60, 60)" stroke-width="1px" opacity="0.25"></line><line x1="0" y1="19.777777777777786" x2="290" y2="19.777777777777786" fill="rgb(0, 0, 0)" stroke="rgb(60, 60, 60)" stroke-width="1px" opacity="0.25"></line><line x1="0" y1="0" x2="290" y2="0" fill="rgb(0, 0, 0)" stroke="rgb(60, 60, 60)" stroke-width="1px" opacity="0.25"></line></g></g></g><g><g><line x1="0" y1="336.22222222222223" x2="290" y2="336.22222222222223" fill="rgb(0, 0, 0)" stroke="rgb(153, 153, 153)" stroke-width="1.5px"></line></g></g><g><g><line x1="24.166666666666664" y1="0" x2="24.166666666666664" y2="178" fill="rgb(0, 0, 0)" stroke="rgb(153, 153, 153)" stroke-width="1.5px"></line></g></g><g><g><g><g><g><path stroke="rgb(204, 51, 17)" stroke-width="2px" d="M24.166666666666664,204.07459598117404L25.375,177.51868203970105L26.583333333333332,154.55745215796424L27.791666666666668,162.4120901558049L29,173.27274108691054L30.208333333333336,174.8345255013596L31.416666666666668,127.8293559182897L32.625,98.43230080423989L33.833333333333336,106.78329480350338L35.041666666666664,130.7165851392649L36.25,122.81001205642602L37.458333333333336,121.63147606546526L38.666666666666664,108.9656750509632L39.875,99.87907108147427L41.083333333333336,106.49375485493142L42.29166666666667,127.3540493512415L43.5,109.61148100369343L44.708333333333336,98.21785695539151L45.916666666666664,115.2254764087233L47.125,115.90787341427276L48.33333333333333,129.1823784109464L49.541666666666664,146.12259860801032L50.75,115.5295445764821L51.958333333333336,138.168586001098L53.166666666666664,122.30376765118547L54.375,133.741949373265L55.583333333333336,145.21892198650406L56.791666666666664,131.45104958596934L58,104.33571507530007L59.208333333333336,121.47476193644988L60.41666666666667,126.64207935202961L61.625,129.27719701998774L62.833333333333336,126.93291136845416L64.04166666666667,117.06382963264448L65.25,115.0604323804911L66.45833333333333,124.79486947223161L67.66666666666667,137.1271946908878L68.875,149.38516044363433L70.08333333333333,157.13242879872456L71.29166666666666,116.8115936762628L72.5,114.51837220886613L73.70833333333333,117.45377495971746L74.91666666666667,111.35152498790256L76.125,124.14062801323576L77.33333333333333,104.8945554367302L78.54166666666666,112.74426052262417L79.75,119.76739629152499L80.95833333333333,117.8587587471912L82.16666666666667,128.09890687022033L83.375,118.88205175549986L84.58333333333334,114.87161086892606L85.79166666666667,123.51964539537718L87,137.90031827121732L88.20833333333333,112.00271775000311L89.41666666666667,121.20440552281515L90.625,116.09818760066103L91.83333333333333,82.36301261969217L93.04166666666667,89.44342716373585L94.25,84.0802833593864L95.45833333333333,100.21579770642091L96.66666666666666,118.38469162752938L97.875,60.39707297729246L99.08333333333333,90.11512386998382L100.29166666666667,109.35146087978083L101.5,109.9866399694373L102.70833333333334,131.50742145335334L103.91666666666667,141.62167056007894L105.125,115.64911599337296L106.33333333333333,102.27145810632409L107.54166666666667,113.22997399523427L108.75,127.68018717064916L109.95833333333333,142.7636754977366L111.16666666666667,127.1875065110379L112.375,139.81482352388838L113.58333333333333,147.6862348690032L114.79166666666666,123.90263788693376L116,134.151187691971L117.20833333333333,112.03240990074596L118.41666666666667,90.37477613272485L119.625,65.08902447346948L120.83333333333334,64.99702952825885L122.04166666666667,71.42911319314277L123.25,96.29223500762141L124.45833333333333,97.86727207511463L125.66666666666667,103.41016746339511L126.875,115.23312174964906L128.08333333333334,116.00871161164868L129.29166666666669,123.74895619770844L130.5,133.92804253859407L131.70833333333334,129.0027851062202L132.91666666666666,124.18586369208921L134.125,128.29438014014443L135.33333333333334,112.14158829196496L136.54166666666666,129.8518030885403L137.75,100.93400220504996L138.95833333333334,83.38487670493012L140.16666666666666,73.77272818308307L141.375,67.61996405736183L142.58333333333331,91.4787066087266L143.79166666666666,113.07414921002979L145,111.34455372587438L146.20833333333334,85.52638817752069L147.41666666666666,92.92087447037277L148.625,93.96376657759404L149.83333333333334,107.9597245823682L151.04166666666669,82.21945701219293L152.25,54.32128998974532L153.45833333333334,78.81615998216887L154.66666666666666,78.97649282342213L155.875,94.66704522148146L157.08333333333331,97.29126117962016L158.29166666666666,66.72031835933262L159.5,76.77718263134365L160.70833333333334,98.00525589474317L161.91666666666666,85.32339826781006L163.125,101.05364312353478L164.33333333333334,101.83203601239407L165.54166666666666,60.43253950465188L166.75,74.25519549283591L167.95833333333334,82.62740161355032L169.16666666666669,73.94959862726193L170.375,95.09306496015802L171.58333333333334,66.20425121022168L172.79166666666666,34.87805642100458L174,25.293158859609655L175.20833333333331,53.66384675058604L176.41666666666666,75.0348121197063L177.625,72.47808258212447L178.83333333333334,21.131584978522827L180.04166666666666,41.4668664232988L181.25,41.28373093931977L182.45833333333334,62.38045061589878L183.66666666666666,88.37605232407012L184.875,100.0604960922209L186.08333333333334,75.69169562243027L187.29166666666669,86.02172849069623L188.5,100.28222017845272L189.70833333333334,91.04106922008857L190.91666666666666,106.62508386318349L192.125,62.01581897865108L193.33333333333331,41.47318815494636L194.54166666666666,56.220542307798745L195.75,46.53395306930017L196.95833333333334,58.129549656954964L198.16666666666666,56.39992579950812L199.375,36.77435013064634L200.58333333333334,33.60667398987981L201.79166666666666,37.66218685384347L203,50.28113301577649L204.20833333333334,68.90713274606881L205.41666666666669,90.8693888422778L206.625,76.46634454589442L207.83333333333334,66.22094282936625L209.04166666666666,74.27166229908283L210.25,76.41021572405099L211.45833333333331,93.77962847583805L212.66666666666666,87.79156088224465L213.875,51.46014901205764L215.08333333333334,62.56834220009107L216.29166666666666,86.32028734308884L217.5,96.43114661409669L218.70833333333334,79.19084760463113L219.91666666666666,55.164824272539L221.125,68.39091079909075L222.33333333333334,70.90089599122528L223.54166666666669,81.77781143941696L224.75,99.04186213605284L225.95833333333334,70.64702544873715L227.16666666666666,40.147840923713986L228.375,42.401145201392005L229.58333333333331,50.65317276252494L230.79166666666666,64.27532997146132L232,80.80577014676477L233.20833333333334,66.4938137044841L234.41666666666666,63.894880550414996L235.625,55.66769881624817L236.83333333333334,60.45118581065197L238.04166666666666,68.73784327257393L239.25,62.288567220416525L240.45833333333334,39.26498404588057L241.66666666666669,60.42063876232758L242.875,24.750347298079344L244.08333333333334,41.04002763690028L245.29166666666666,66.9046438418104L246.5,53.32141466035133L247.70833333333331,61.27241713708838L248.91666666666666,64.22196586495478L250.125,72.14026333435937L251.33333333333334,88.83648862102359L252.54166666666666,62.59941291092959L253.75,63.25583766897641L254.95833333333334,47.19363255919382L256.1666666666667,32.857596874981844L257.375,44.66816047666041L258.58333333333337,60.201642435173L259.7916666666667,3.7448098473113696L261,4.468709148437695L262.2083333333333,14.533381176669428L263.4166666666667,34.55095502904655L264.625,55.15285263101409" style="fill: none;" fill="none"></path></g></g></g></g><g opacity="0.2"><g><g><g><path stroke="rgb(204, 51, 17)" stroke-width="2px" d="M24.166666666666664,204.07459598117404L25.375,156.0880594889323L26.583333333333332,121.07426164415148L27.791666666666668,177.99417555067274L29,199.42445220947266L31.416666666666668,-14.427674018012153L32.625,2.9120134141710015L33.833333333333336,135.42049899631076L35.041666666666664,216.26282958984376L36.25,93.62281714545357L37.458333333333336,117.1694814046224L38.666666666666664,60.046028645833324L39.875,64.22406005859375L41.083333333333336,132.777828640408L42.29166666666667,211.08082758585613L43.5,37.82418518066406L44.708333333333336,51.82118191189236L45.916666666666664,184.84164564344618L47.125,118.71268886990016L48.33333333333333,183.92595469156902L51.958333333333336,232.14752129448786L53.166666666666664,56.35356920030381L54.375,181.3443052503798L55.583333333333336,193.0262191772461L56.791666666666664,74.05889926486545L58,-8.763019816080735L59.208333333333336,192.99629720052081L60.41666666666667,148.21369069417318L61.625,140.28124338785807L62.833333333333336,117.14090237087674L64.04166666666667,75.83264024522569L65.25,106.68924492730035L66.45833333333333,165.47553270128037L67.66666666666667,188.67002902560762L71.29166666666666,-51.74446818033853L72.5,104.93142310248481L73.70833333333333,129.72584737141926L74.91666666666667,85.83902910020616L76.125,177.61101430257162L77.33333333333333,24.42647298177084L78.54166666666666,145.56448669433595L79.75,149.13203735351564L80.95833333333333,109.8784176296658L82.16666666666667,170.9150704277886L83.375,80.34423455132378L84.58333333333334,98.10293528238931L85.79166666666667,159.67943606906468L87,198.03003980848524L88.20833333333333,3.7171152750651015L89.41666666666667,159.6794964260525L90.625,94.74747907850477L91.83333333333333,-58.694605509440116L93.04166666666667,119.04895273844403L94.25,61.65520629882812L95.45833333333333,167.68376854790583L96.66666666666666,194.35494808620876L100.29166666666667,189.785154554579L101.5,112.64254133436415L102.70833333333334,221.49320017496746L103.91666666666667,183.91282704671224L105.125,7.048911539713551L106.33333333333333,46.33485243055555L107.54166666666667,159.05131598578558L108.75,188.10152655707464L109.95833333333333,205.83296101888018L111.16666666666667,62.058149549696175L112.375,192.61401112874347L113.58333333333333,180.59933403862848L114.79166666666666,24.45517272949219L116,177.0039286295573L117.20833333333333,19.54612765842014L118.41666666666667,-0.18330417209199457L119.625,-40.63947652180989L120.83333333333334,64.61236673990885L122.04166666666667,98.32388712565104L123.25,200.25357615152996L124.45833333333333,104.45304870605469L125.66666666666667,126.5869369506836L126.875,164.6689973619249L128.08333333333334,119.25172203911676L129.29166666666669,156.11360558403862L130.5,176.49033593071832L131.70833333333334,108.40857408311632L132.91666666666666,104.04464314778646L134.125,145.4735136244032L135.33333333333334,44.601158311631934L136.54166666666666,203.90435909695097L137.75,-19.98136189778647L138.95833333333334,10.00589090983073L140.16666666666666,33.58099839952258L141.375,41.89312133789062L142.58333333333331,191.24039171006945L143.79166666666666,203.37219153510202L145,104.11251458062065L146.20833333333334,-22.428324720594613L147.41666666666666,123.83978864881728L148.625,98.32446051703559L149.83333333333334,166.48168368869358L151.04166666666669,-25.409537421332473L153.45833333333334,181.23771480984158L154.66666666666666,79.64690009223091L155.875,160.27469177246095L157.08333333333331,108.26401909722222L158.29166666666666,-61.107406277126756L159.5,118.82842339409721L160.70833333333334,186.76719953748915L161.91666666666666,32.29614902072483L163.125,166.82725762261285L164.33333333333334,105.0867668999566L165.54166666666666,-112.67312723795571L166.75,132.05251871744792L167.95833333333334,117.63450181749133L169.16666666666669,37.66469184027778L170.375,183.50123765733505L174,-14.78462524414061L175.20833333333331,172.29154171413845L176.41666666666666,164.39423726399738L177.625,61.78750881618924L178.83333333333334,-193.56594645182295L180.04166666666666,126.49573754204644L181.25,40.51797790527344L182.45833333333334,150.59315931532117L183.66666666666666,197.0726874457465L184.875,148.9172117445204L186.08333333333334,-26.202718777126723L187.29166666666669,129.2151819864909L188.5,159.91028645833333L189.70833333333334,52.4006089952257L190.91666666666666,171.78725908067491L192.125,-124.51100362141928L193.33333333333331,-44.422682698567726L194.54166666666666,117.8843495686849L195.75,6.030960761176216L196.95833333333334,106.61476440429688L198.16666666666666,49.16776801215278L199.375,-45.28699476453994L200.58333333333334,20.36152038574218L201.79166666666666,54.61969401041667L203,103.04532758924697L204.20833333333334,146.78890363905165L205.41666666666669,182.70120578342014L206.625,16.242216322157116L207.83333333333334,23.381361558702256L209.04166666666666,107.93451521131728L210.25,85.35224999321831L211.45833333333331,166.4071729871962L212.66666666666666,62.75337151421441L213.875,-100.454096476237L215.08333333333334,109.01555413140191L216.29166666666666,185.63541547987197L217.5,138.7081592135959L218.70833333333334,7.103172471788184L219.91666666666666,-45.296319919162336L221.125,123.69377000596788L222.33333333333334,81.39601542154948L223.54166666666669,127.25797085232203L224.75,171.22885131835938L225.95833333333334,-48.08164401584202L227.16666666666666,-87.379837375217L228.375,51.822992621527774L229.58333333333331,85.1577646891276L230.79166666666666,121.23429819742837L232,149.92527906629775L233.20833333333334,6.650555419921871L234.41666666666666,53.027838812934036L235.625,21.26699591742621L236.83333333333334,80.45260552300347L238.04166666666666,103.3872348361545L239.25,35.32190517849393L240.45833333333334,-57.004609849717866L241.66666666666669,148.87977532280817L242.875,-124.39952426486546L244.08333333333334,109.15283610026042L245.29166666666666,175.05358310275608L246.5,-3.474781968858513L247.70833333333331,94.51831868489585L248.91666666666666,76.5550530327691L250.125,105.2494138929579L251.33333333333334,158.64920264350042L252.54166666666666,-47.10690884060329L253.75,66.00057746039496L254.95833333333334,-19.96802300347223L256.1666666666667,-27.086345079210083L257.375,94.05222693549263L258.58333333333337,125.15252295600044L259.7916666666667,-232.32080620659724L261,7.495583428276901L262.2083333333333,56.61726888020834L263.4166666666667,118.25138041178384L264.625,141.29653845893014" style="fill: none;" fill="none"></path></g></g></g></g></g></g><g transform="translate(40, 178)" clip-path="url(#clip_1)"><clipPath id="clip_1"><rect width="290" height="22"></rect></clipPath><g><g><line x1="0" y1="0" x2="0" y2="5" style="visibility: inherit;" fill="rgb(0, 0, 0)" stroke="rgb(204, 204, 204)" stroke-width="1px"></line><line x1="24.166666666666664" y1="0" x2="24.166666666666664" y2="5" style="visibility: inherit;" fill="rgb(0, 0, 0)" stroke="rgb(204, 204, 204)" stroke-width="1px"></line><line x1="48.33333333333333" y1="0" x2="48.33333333333333" y2="5" style="visibility: inherit;" fill="rgb(0, 0, 0)" stroke="rgb(204, 204, 204)" stroke-width="1px"></line><line x1="72.5" y1="0" x2="72.5" y2="5" style="visibility: inherit;" fill="rgb(0, 0, 0)" stroke="rgb(204, 204, 204)" stroke-width="1px"></line><line x1="96.66666666666666" y1="0" x2="96.66666666666666" y2="5" style="visibility: inherit;" fill="rgb(0, 0, 0)" stroke="rgb(204, 204, 204)" stroke-width="1px"></line><line x1="120.83333333333334" y1="0" x2="120.83333333333334" y2="5" style="visibility: inherit;" fill="rgb(0, 0, 0)" stroke="rgb(204, 204, 204)" stroke-width="1px"></line><line x1="145" y1="0" x2="145" y2="5" style="visibility: inherit;" fill="rgb(0, 0, 0)" stroke="rgb(204, 204, 204)" stroke-width="1px"></line><line x1="169.16666666666669" y1="0" x2="169.16666666666669" y2="5" style="visibility: inherit;" fill="rgb(0, 0, 0)" stroke="rgb(204, 204, 204)" stroke-width="1px"></line><line x1="193.33333333333331" y1="0" x2="193.33333333333331" y2="5" style="visibility: inherit;" fill="rgb(0, 0, 0)" stroke="rgb(204, 204, 204)" stroke-width="1px"></line><line x1="217.5" y1="0" x2="217.5" y2="5" style="visibility: inherit;" fill="rgb(0, 0, 0)" stroke="rgb(204, 204, 204)" stroke-width="1px"></line><line x1="241.66666666666669" y1="0" x2="241.66666666666669" y2="5" style="visibility: inherit;" fill="rgb(0, 0, 0)" stroke="rgb(204, 204, 204)" stroke-width="1px"></line><line x1="265.8333333333333" y1="0" x2="265.8333333333333" y2="5" style="visibility: inherit;" fill="rgb(0, 0, 0)" stroke="rgb(204, 204, 204)" stroke-width="1px"></line><line x1="290" y1="0" x2="290" y2="5" style="visibility: inherit;" fill="rgb(0, 0, 0)" stroke="rgb(204, 204, 204)" stroke-width="1px"></line></g><g transform="translate(0, 8)"><text x="0" y="0" dx="0em" dy="0.95em" style="text-anchor: middle; visibility: hidden; font-family: Roboto, sans-serif; font-size: 12px; font-weight: 200;" fill="rgb(50, 49, 63)" stroke="none" stroke-width="1px">-20</text><text x="24.166666666666664" y="0" dx="0em" dy="0.95em" style="text-anchor: middle; visibility: inherit; font-family: Roboto, sans-serif; font-size: 12px; font-weight: 200;" fill="rgb(50, 49, 63)" stroke="none" stroke-width="1px">0</text><text x="48.33333333333333" y="0" dx="0em" dy="0.95em" style="text-anchor: middle; visibility: hidden; font-family: Roboto, sans-serif; font-size: 12px; font-weight: 200;" fill="rgb(50, 49, 63)" stroke="none" stroke-width="1px">20</text><text x="72.5" y="0" dx="0em" dy="0.95em" style="text-anchor: middle; visibility: inherit; font-family: Roboto, sans-serif; font-size: 12px; font-weight: 200;" fill="rgb(50, 49, 63)" stroke="none" stroke-width="1px">40</text><text x="96.66666666666666" y="0" dx="0em" dy="0.95em" style="text-anchor: middle; visibility: hidden; font-family: Roboto, sans-serif; font-size: 12px; font-weight: 200;" fill="rgb(50, 49, 63)" stroke="none" stroke-width="1px">60</text><text x="120.83333333333334" y="0" dx="0em" dy="0.95em" style="text-anchor: middle; visibility: inherit; font-family: Roboto, sans-serif; font-size: 12px; font-weight: 200;" fill="rgb(50, 49, 63)" stroke="none" stroke-width="1px">80</text><text x="145" y="0" dx="0em" dy="0.95em" style="text-anchor: middle; visibility: hidden; font-family: Roboto, sans-serif; font-size: 12px; font-weight: 200;" fill="rgb(50, 49, 63)" stroke="none" stroke-width="1px">100</text><text x="169.16666666666669" y="0" dx="0em" dy="0.95em" style="text-anchor: middle; visibility: inherit; font-family: Roboto, sans-serif; font-size: 12px; font-weight: 200;" fill="rgb(50, 49, 63)" stroke="none" stroke-width="1px">120</text><text x="193.33333333333331" y="0" dx="0em" dy="0.95em" style="text-anchor: middle; visibility: hidden; font-family: Roboto, sans-serif; font-size: 12px; font-weight: 200;" fill="rgb(50, 49, 63)" stroke="none" stroke-width="1px">140</text><text x="217.5" y="0" dx="0em" dy="0.95em" style="text-anchor: middle; visibility: inherit; font-family: Roboto, sans-serif; font-size: 12px; font-weight: 200;" fill="rgb(50, 49, 63)" stroke="none" stroke-width="1px">160</text><text x="241.66666666666669" y="0" dx="0em" dy="0.95em" style="text-anchor: middle; visibility: hidden; font-family: Roboto, sans-serif; font-size: 12px; font-weight: 200;" fill="rgb(50, 49, 63)" stroke="none" stroke-width="1px">180</text><text x="265.8333333333333" y="0" dx="0em" dy="0.95em" style="text-anchor: middle; visibility: inherit; font-family: Roboto, sans-serif; font-size: 12px; font-weight: 200;" fill="rgb(50, 49, 63)" stroke="none" stroke-width="1px">200</text><text x="290" y="0" dx="0em" dy="0.95em" style="text-anchor: middle; visibility: hidden; font-family: Roboto, sans-serif; font-size: 12px; font-weight: 200;" fill="rgb(50, 49, 63)" stroke="none" stroke-width="1px">220</text></g><line x1="0" y1="0" x2="290" y2="0" fill="rgb(0, 0, 0)" stroke="rgb(204, 204, 204)" stroke-width="1px"></line></g></g></g></g></svg>