<svg viewBox="0 0 330 200" xmlns="http://www.w3.org/2000/svg"><g><g><g><g><g><line x1="40" y1="178" x2="35" y2="178" style="visibility: inherit;" fill="rgb(0, 0, 0)" stroke="rgb(204, 204, 204)" stroke-width="1px"></line><line x1="40" y1="164.30769230769232" x2="35" y2="164.30769230769232" style="visibility: inherit;" fill="rgb(0, 0, 0)" stroke="rgb(204, 204, 204)" stroke-width="1px"></line><line x1="40" y1="150.6153846153846" x2="35" y2="150.6153846153846" style="visibility: inherit;" fill="rgb(0, 0, 0)" stroke="rgb(204, 204, 204)" stroke-width="1px"></line><line x1="40" y1="136.9230769230769" x2="35" y2="136.9230769230769" style="visibility: inherit;" fill="rgb(0, 0, 0)" stroke="rgb(204, 204, 204)" stroke-width="1px"></line><line x1="40" y1="123.23076923076923" x2="35" y2="123.23076923076923" style="visibility: inherit;" fill="rgb(0, 0, 0)" stroke="rgb(204, 204, 204)" stroke-width="1px"></line><line x1="40" y1="109.53846153846155" x2="35" y2="109.53846153846155" style="visibility: inherit;" fill="rgb(0, 0, 0)" stroke="rgb(204, 204, 204)" stroke-width="1px"></line><line x1="40" y1="95.84615384615384" x2="35" y2="95.84615384615384" style="visibility: inherit;" fill="rgb(0, 0, 0)" stroke="rgb(204, 204, 204)" stroke-width="1px"></line><line x1="40" y1="82.15384615384616" x2="35" y2="82.15384615384616" style="visibility: inherit;" fill="rgb(0, 0, 0)" stroke="rgb(204, 204, 204)" stroke-width="1px"></line><line x1="40" y1="68.46153846153845" x2="35" y2="68.46153846153845" style="visibility: inherit;" fill="rgb(0, 0, 0)" stroke="rgb(204, 204, 204)" stroke-width="1px"></line><line x1="40" y1="54.769230769230774" x2="35" y2="54.769230769230774" style="visibility: inherit;" fill="rgb(0, 0, 0)" stroke="rgb(204, 204, 204)" stroke-width="1px"></line><line x1="40" y1="41.076923076923066" x2="35" y2="41.076923076923066" style="visibility: inherit;" fill="rgb(0, 0, 0)" stroke="rgb(204, 204, 204)" stroke-width="1px"></line><line x1="40" y1="27.384615384615387" x2="35" y2="27.384615384615387" style="visibility: inherit;" fill="rgb(0, 0, 0)" stroke="rgb(204, 204, 204)" stroke-width="1px"></line><line x1="40" y1="13.692307692307683" x2="35" y2="13.692307692307683" style="visibility: inherit;" fill="rgb(0, 0, 0)" stroke="rgb(204, 204, 204)" stroke-width="1px"></line><line x1="40" y1="0" x2="35" y2="0" style="visibility: inherit;" fill="rgb(0, 0, 0)" stroke="rgb(204, 204, 204)" stroke-width="1px"></line></g><g transform="translate(30, 0)"><text x="0" y="178" dx="0em" dy="0.3em" style="text-anchor: end; visibility: hidden; font-family: Roboto, sans-serif; font-size: 12px; font-weight: 200;" fill="rgb(50, 49, 63)" stroke="none" stroke-width="1px">65</text><text x="0" y="164.30769230769232" dx="0em" dy="0.3em" style="text-anchor: end; visibility: inherit; font-family: Roboto, sans-serif; font-size: 12px; font-weight: 200;" fill="rgb(50, 49, 63)" stroke="none" stroke-width="1px">70</text><text x="0" y="150.6153846153846" dx="0em" dy="0.3em" style="text-anchor: end; visibility: hidden; font-family: Roboto, sans-serif; font-size: 12px; font-weight: 200;" fill="rgb(50, 49, 63)" stroke="none" stroke-width="1px">75</text><text x="0" y="136.9230769230769" dx="0em" dy="0.3em" style="text-anchor: end; visibility: inherit; font-family: Roboto, sans-serif; font-size: 12px; font-weight: 200;" fill="rgb(50, 49, 63)" stroke="none" stroke-width="1px">80</text><text x="0" y="123.23076923076923" dx="0em" dy="0.3em" style="text-anchor: end; visibility: hidden; font-family: Roboto, sans-serif; font-size: 12px; font-weight: 200;" fill="rgb(50, 49, 63)" stroke="none" stroke-width="1px">85</text><text x="0" y="109.53846153846155" dx="0em" dy="0.3em" style="text-anchor: end; visibility: inherit; font-family: Roboto, sans-serif; font-size: 12px; font-weight: 200;" fill="rgb(50, 49, 63)" stroke="none" stroke-width="1px">90</text><text x="0" y="95.84615384615384" dx="0em" dy="0.3em" style="text-anchor: end; visibility: hidden; font-family: Roboto, sans-serif; font-size: 12px; font-weight: 200;" fill="rgb(50, 49, 63)" stroke="none" stroke-width="1px">95</text><text x="0" y="82.15384615384616" dx="0em" dy="0.3em" style="text-anchor: end; visibility: inherit; font-family: Roboto, sans-serif; font-size: 12px; font-weight: 200;" fill="rgb(50, 49, 63)" stroke="none" stroke-width="1px">100</text><text x="0" y="68.46153846153845" dx="0em" dy="0.3em" style="text-anchor: end; visibility: hidden; font-family: Roboto, sans-serif; font-size: 12px; font-weight: 200;" fill="rgb(50, 49, 63)" stroke="none" stroke-width="1px">105</text><text x="0" y="54.769230769230774" dx="0em" dy="0.3em" style="text-anchor: end; visibility: inherit; font-family: Roboto, sans-serif; font-size: 12px; font-weight: 200;" fill="rgb(50, 49, 63)" stroke="none" stroke-width="1px">110</text><text x="0" y="41.076923076923066" dx="0em" dy="0.3em" style="text-anchor: end; visibility: hidden; font-family: Roboto, sans-serif; font-size: 12px; font-weight: 200;" fill="rgb(50, 49, 63)" stroke="none" stroke-width="1px">115</text><text x="0" y="27.384615384615387" dx="0em" dy="0.3em" style="text-anchor: end; visibility: inherit; font-family: Roboto, sans-serif; font-size: 12px; font-weight: 200;" fill="rgb(50, 49, 63)" stroke="none" stroke-width="1px">120</text><text x="0" y="13.692307692307683" dx="0em" dy="0.3em" style="text-anchor: end; visibility: hidden; font-family: Roboto, sans-serif; font-size: 12px; font-weight: 200;" fill="rgb(50, 49, 63)" stroke="none" stroke-width="1px">125</text><text x="0" y="0" dx="0em" dy="0.3em" style="text-anchor: end; visibility: hidden; font-family: Roboto, sans-serif; font-size: 12px; font-weight: 200;" fill="rgb(50, 49, 63)" stroke="none" stroke-width="1px">130</text></g><line x1="40" y1="0" x2="40" y2="178" fill="rgb(0, 0, 0)" stroke="rgb(204, 204, 204)" stroke-width="1px"></line></g></g><g transform="translate(40, 0)" clip-path="url(#clip_0)"><clipPath id="clip_0"><rect width="290" height="178"></rect></clipPath><g><g><g><line x1="0" y1="0" x2="0" y2="178" fill="rgb(0, 0, 0)" stroke="rgb(60, 60, 60)" stroke-width="1px" opacity="0.25"></line><line x1="32.22222222222222" y1="0" x2="32.22222222222222" y2="178" fill="rgb(0, 0, 0)" stroke="rgb(60, 60, 60)" stroke-width="1px" opacity="0.25"></line><line x1="64.44444444444444" y1="0" x2="64.44444444444444" y2="178" fill="rgb(0, 0, 0)" stroke="rgb(60, 60, 60)" stroke-width="1px" opacity="0.25"></line><line x1="96.66666666666666" y1="0" x2="96.66666666666666" y2="178" fill="rgb(0, 0, 0)" stroke="rgb(60, 60, 60)" stroke-width="1px" opacity="0.25"></line><line x1="128.88888888888889" y1="0" x2="128.88888888888889" y2="178" fill="rgb(0, 0, 0)" stroke="rgb(60, 60, 60)" stroke-width="1px" opacity="0.25"></line><line x1="161.11111111111111" y1="0" x2="161.11111111111111" y2="178" fill="rgb(0, 0, 0)" stroke="rgb(60, 60, 60)" stroke-width="1px" opacity="0.25"></line><line x1="193.33333333333331" y1="0" x2="193.33333333333331" y2="178" fill="rgb(0, 0, 0)" stroke="rgb(60, 60, 60)" stroke-width="1px" opacity="0.25"></line><line x1="225.55555555555557" y1="0" x2="225.55555555555557" y2="178" fill="rgb(0, 0, 0)" stroke="rgb(60, 60, 60)" stroke-width="1px" opacity="0.25"></line><line x1="257.77777777777777" y1="0" x2="257.77777777777777" y2="178" fill="rgb(0, 0, 0)" stroke="rgb(60, 60, 60)" stroke-width="1px" opacity="0.25"></line><line x1="290" y1="0" x2="290" y2="178" fill="rgb(0, 0, 0)" stroke="rgb(60, 60, 60)" stroke-width="1px" opacity="0.25"></line></g><g><line x1="0" y1="178" x2="290" y2="178" fill="rgb(0, 0, 0)" stroke="rgb(60, 60, 60)" stroke-width="1px" opacity="0.25"></line><line x1="0" y1="164.30769230769232" x2="290" y2="164.30769230769232" fill="rgb(0, 0, 0)" stroke="rgb(60, 60, 60)" stroke-width="1px" opacity="0.25"></line><line x1="0" y1="150.6153846153846" x2="290" y2="150.6153846153846" fill="rgb(0, 0, 0)" stroke="rgb(60, 60, 60)" stroke-width="1px" opacity="0.25"></line><line x1="0" y1="136.9230769230769" x2="290" y2="136.9230769230769" fill="rgb(0, 0, 0)" stroke="rgb(60, 60, 60)" stroke-width="1px" opacity="0.25"></line><line x1="0" y1="123.23076923076923" x2="290" y2="123.23076923076923" fill="rgb(0, 0, 0)" stroke="rgb(60, 60, 60)" stroke-width="1px" opacity="0.25"></line><line x1="0" y1="109.53846153846155" x2="290" y2="109.53846153846155" fill="rgb(0, 0, 0)" stroke="rgb(60, 60, 60)" stroke-width="1px" opacity="0.25"></line><line x1="0" y1="95.84615384615384" x2="290" y2="95.84615384615384" fill="rgb(0, 0, 0)" stroke="rgb(60, 60, 60)" stroke-width="1px" opacity="0.25"></line><line x1="0" y1="82.15384615384616" x2="290" y2="82.15384615384616" fill="rgb(0, 0, 0)" stroke="rgb(60, 60, 60)" stroke-width="1px" opacity="0.25"></line><line x1="0" y1="68.46153846153845" x2="290" y2="68.46153846153845" fill="rgb(0, 0, 0)" stroke="rgb(60, 60, 60)" stroke-width="1px" opacity="0.25"></line><line x1="0" y1="54.769230769230774" x2="290" y2="54.769230769230774" fill="rgb(0, 0, 0)" stroke="rgb(60, 60, 60)" stroke-width="1px" opacity="0.25"></line><line x1="0" y1="41.076923076923066" x2="290" y2="41.076923076923066" fill="rgb(0, 0, 0)" stroke="rgb(60, 60, 60)" stroke-width="1px" opacity="0.25"></line><line x1="0" y1="27.384615384615387" x2="290" y2="27.384615384615387" fill="rgb(0, 0, 0)" stroke="rgb(60, 60, 60)" stroke-width="1px" opacity="0.25"></line><line x1="0" y1="13.692307692307683" x2="290" y2="13.692307692307683" fill="rgb(0, 0, 0)" stroke="rgb(60, 60, 60)" stroke-width="1px" opacity="0.25"></line><line x1="0" y1="0" x2="290" y2="0" fill="rgb(0, 0, 0)" stroke="rgb(60, 60, 60)" stroke-width="1px" opacity="0.25"></line></g></g></g><g><g><line x1="0" y1="356" x2="290" y2="356" fill="rgb(0, 0, 0)" stroke="rgb(153, 153, 153)" stroke-width="1.5px"></line></g></g><g><g><line x1="32.22222222222222" y1="0" x2="32.22222222222222" y2="178" fill="rgb(0, 0, 0)" stroke="rgb(153, 153, 153)" stroke-width="1.5px"></line></g></g><g><g><g><g><g><path stroke="rgb(0, 119, 187)" stroke-width="2px" d="M32.22222222222222,205.4980215219351L33.833333333333336,92.29976817693843L35.44444444444444,93.02306100106753L37.05555555555555,136.31037933783546L38.666666666666664,96.3325029409705L40.27777777777778,81.27915708897655L41.888888888888886,107.53960043558259L43.5,114.24383505644869L45.111111111111114,118.79720328747007L46.72222222222223,97.70629585020923L48.33333333333333,104.58407900231497L49.94444444444444,119.74278809107923L51.55555555555556,131.07395997622487L53.166666666666664,61.425695888440266L54.77777777777778,73.4402707194106L56.38888888888889,92.26260824323681L58,117.39611091870856L59.61111111111111,125.26195150938655L61.22222222222222,140.43555412978077L62.833333333333336,135.61575082186772L64.44444444444444,143.94821668952096L66.05555555555556,144.02493429583737L67.66666666666667,152.25881593953497L69.27777777777779,146.21961463474025L70.88888888888889,92.98434115368107L72.5,89.99910366442177L74.1111111111111,122.24632884230753L75.72222222222223,127.53134805926389L77.33333333333333,148.58647392573909L78.94444444444444,143.78881395489447L80.55555555555556,134.00943552243186L82.16666666666667,142.4557164716802L83.77777777777777,141.6235302143776L85.38888888888889,154.61236029311013L87,164.20314314765025L88.61111111111111,146.07026727480783L90.22222222222223,148.61843655758858L91.83333333333333,134.1435342229676L93.44444444444446,159.13374104759913L95.05555555555556,164.10773758262064L96.66666666666666,176.3793453489044L98.27777777777779,134.94339722330747L99.88888888888889,125.72814243400484L101.5,139.99671277161377L103.11111111111111,141.07095159524033L104.72222222222221,160.1641691977141L106.33333333333333,117.85439426942965L107.94444444444444,83.24530283334074L109.55555555555556,82.52970141573141L111.16666666666667,94.50915280591315L112.77777777777779,106.57687407857371L114.38888888888889,91.7586580704687L116,86.7235512482693L117.61111111111111,88.14385902554835L119.22222222222221,60.719044867221044L120.83333333333334,33.19913042799308L122.44444444444444,65.93864060345123L124.05555555555554,77.33831926085165L125.66666666666667,64.94885645003846L127.27777777777777,80.30010094245402L128.88888888888889,88.4763797696821L130.5,92.05730487885387L132.11111111111111,89.27213102962219L133.72222222222223,84.09821703480809L135.33333333333334,65.16777044610994L136.94444444444443,80.80360971765057L138.55555555555557,91.76658495971277L140.16666666666666,118.14914430386844L141.77777777777777,104.59073970517868L143.38888888888889,69.13199054864758L145,68.50613630796248L146.61111111111111,57.9318526741763L148.2222222222222,40.605810606003175L149.83333333333334,64.21511298306547L151.44444444444446,57.097140379498526L153.05555555555557,61.91904749946372L154.66666666666666,70.51780630729122L156.27777777777777,93.35010211392338L157.88888888888889,108.13548649209228L159.5,126.34306878415147L161.11111111111111,71.57047850730888L162.72222222222223,85.43700229628736L164.33333333333334,90.00983033911687L165.94444444444443,114.88994558374867L167.55555555555554,127.26222125349639L169.16666666666669,71.20937860032613L170.77777777777777,39.851985735382584L172.38888888888889,64.87512053941401L174,65.26481896333482L175.6111111111111,91.17731274741797L177.22222222222223,110.61752416274304L178.83333333333334,62.24187083059104L180.44444444444446,56.17219232272064L182.05555555555554,70.931932196257L183.66666666666666,87.81022462320132L185.27777777777777,123.20521709768822L186.8888888888889,122.37318880275848L188.5,119.41764692563444L190.11111111111111,74.20877478387517L191.72222222222223,97.25608705235639L193.33333333333331,94.53598623422825L194.94444444444446,115.626153843904L196.55555555555557,10.304304189430821L198.16666666666666,33.432946138860444L199.77777777777777,52.523129823091885L201.38888888888889,78.43906274239293L203,99.7092449699991L204.61111111111111,92.63075899102179L206.22222222222223,97.18320009630392L207.83333333333334,104.99220868307835L209.44444444444443,119.28079103761631L211.05555555555554,120.34982420558299L212.66666666666666,134.61187753661076L214.2777777777778,124.44767171147348L215.88888888888889,139.26018241603157L217.5,148.5886888721672L219.11111111111111,102.09548653459383L220.7222222222222,117.66248477061599L222.33333333333334,132.8728402977705L223.94444444444446,79.1528523349782L225.55555555555557,92.13976738260558L227.16666666666666,87.33367022619304L228.77777777777777,115.62882318033593L230.38888888888889,128.65785158959412L232,74.12640147015848L233.61111111111111,34.58236712431198L235.22222222222223,23.778464789148778L236.83333333333334,-3.3663563248103108L238.44444444444443,40.208899685410294L240.05555555555554,52.544951970489485L241.66666666666669,-38.537837429179056L246.5,-4.442384307831155L248.1111111111111,37.447953199239976L249.72222222222223,64.13237601458395L251.33333333333334,61.70445307645681L252.94444444444446,68.55048517525671L254.55555555555554,95.11853893924325L256.1666666666667,94.86580304773696L257.77777777777777,109.34558369148928L259.3888888888889,62.026582422135874L261,57.439816954147055L262.6111111111111,72.17748879606225L264.22222222222223,80.24387212484213L265.8333333333333,87.51203187867682L267.44444444444446,68.67536479124279L269.05555555555554,60.44518449139269" style="fill: none;" fill="none"></path></g></g></g></g><g opacity="0.2"><g><g><g><path stroke="rgb(0, 119, 187)" stroke-width="2px" d="M32.22222222222222,205.4980215219351L33.833333333333336,1.6279672475961584L35.44444444444444,94.06648395244892L37.05555555555555,221.00303063025842L38.666666666666664,1.657885742187504L40.27777777777778,40.66660930926983L41.888888888888886,185.32367976262017L43.5,135.52027141864482L45.111111111111114,134.01929063063403L46.72222222222223,24.335791250375603L48.33333333333333,129.25811321551984L49.94444444444444,175.44476834810698L51.55555555555556,173.5017585167518L53.166666666666664,-203.25296443058895L54.77777777777778,119.63601614145132L56.38888888888889,165.30881277231072L58,215.656572664701L59.61111111111111,156.1947033221905L61.22222222222222,200.38594947228063L62.833333333333336,116.50174044095553L64.44444444444444,177.09097501314605L66.05555555555556,144.33080843411958L67.66666666666667,185.14986208402192L69.27777777777779,122.05874563363882L70.88888888888889,-120.25162259615384L72.5,78.02998281625601L74.1111111111111,251.6402167687049L75.72222222222223,148.75101529634915L77.33333333333333,233.1662358210637L78.94444444444444,124.50861487755408L80.55555555555556,94.6967989408053L82.16666666666667,176.41805959848256L83.77777777777777,138.2766380896935L85.38888888888889,206.8595010610727L87,202.78682509202224L88.61111111111111,73.11409419133112L90.22222222222223,158.8716564471905L91.83333333333333,75.89607543945313L93.44444444444446,259.7005558894231L98.27777777777779,-31.82283184344954L99.88888888888889,88.63890967735877L101.5,197.42537653996393L103.11111111111111,145.39464909480168L104.72222222222221,237.013227726863L107.94444444444444,-56.05651996319111L109.55555555555556,79.64938401442309L111.16666666666667,142.72703505295974L112.77777777777779,155.15023029033955L114.38888888888889,32.11420288085938L116,66.4568112886869L117.61111111111111,93.86073162372296L119.22222222222221,-49.66858708308293L122.44444444444444,197.71875328650842L124.05555555555554,123.22331049992489L125.66666666666667,15.079840557391822L127.27777777777777,142.09066115159254L128.88888888888889,121.38687485914966L130.5,106.47095923790565L132.11111111111111,78.06146827110877L133.72222222222223,63.27258089505708L135.33333333333334,-11.02960345928486L136.94444444444443,143.7397928091196L138.55555555555557,135.8939183161809L140.16666666666666,224.34222294734076L141.77777777777777,50.016473153921275L143.38888888888889,-73.59389742337741L145,65.98699481670673L146.61111111111111,15.36903874323918L148.2222222222222,-29.133677321213924L149.83333333333334,159.24551227276143L151.44444444444446,28.446408550555894L153.05555555555557,81.32782827524039L154.66666666666666,105.12888911320614L156.27777777777777,185.25295762282153L157.88888888888889,167.64851426344651L159.5,199.63087310791016L161.11111111111111,-148.89607403094953L162.72222222222223,141.25150169959434L164.33333333333334,108.41603745680588L165.94444444444443,215.03553408109224L167.55555555555554,177.0621847299429L169.16666666666669,-154.41035344050482L170.77777777777777,-86.36545926607572L172.38888888888889,165.5963813194862L174,66.83340407151441L175.6111111111111,195.47835529033955L178.83333333333334,-132.47621084359974L180.44444444444446,31.740973839393032L182.05555555555554,130.34173936110278L183.66666666666666,155.74747197077824L185.27777777777777,265.6745083148663L186.8888888888889,119.02417039137619L188.5,107.52121957632211L190.11111111111111,-107.76261502779447L191.72222222222223,190.02441429725062L193.33333333333331,83.58723872258112L194.94444444444446,200.51672797569861L196.55555555555557,-413.6293719951923L198.16666666666666,126.5286355825571L199.77777777777777,129.36351740910456L201.38888888888889,182.75394850510816L203,185.32440056434044L204.61111111111111,64.13896366999698L206.22222222222223,115.5073474590595L207.83333333333334,136.42444927509015L209.44444444444443,176.79413006122294L211.05555555555554,124.65281700721155L212.66666666666666,192.0184339083158L214.2777777777778,83.53546635554386L215.88888888888889,198.88239886944112L223.94444444444446,-137.07684795673077L225.55555555555557,144.41373197115385L227.16666666666666,67.988525390625L228.77777777777777,229.52036848801833L238.44444444444443,215.6047794048603L240.05555555555554,102.19911217322718L241.66666666666669,-405.1575073242187L243.27777777777777,115.31168635441708L244.88888888888889,-25.92901376577526L246.5,23.986421790489793L248.1111111111111,206.06182427039514L249.72222222222223,171.5405301607572L251.33333333333334,51.93175823505107L252.94444444444446,96.10662442720853L254.55555555555554,202.05829303448016L256.1666666666667,93.8485093336839L257.77777777777777,167.62851985051083L259.3888888888889,-128.43834228515624L261,38.977509718674874L262.6111111111111,131.49846942608173L264.22222222222223,112.71207838792066L265.8333333333333,116.7672879732572L267.44444444444446,-7.1445866511418075L269.05555555555554,27.317674842247605" style="fill: none;" fill="none"></path></g></g></g></g></g></g><g transform="translate(40, 178)" clip-path="url(#clip_1)"><clipPath id="clip_1"><rect width="290" height="22"></rect></clipPath><g><g><line x1="0" y1="0" x2="0" y2="5" style="visibility: inherit;" fill="rgb(0, 0, 0)" stroke="rgb(204, 204, 204)" stroke-width="1px"></line><line x1="32.22222222222222" y1="0" x2="32.22222222222222" y2="5" style="visibility: inherit;" fill="rgb(0, 0, 0)" stroke="rgb(204, 204, 204)" stroke-width="1px"></line><line x1="64.44444444444444" y1="0" x2="64.44444444444444" y2="5" style="visibility: inherit;" fill="rgb(0, 0, 0)" stroke="rgb(204, 204, 204)" stroke-width="1px"></line><line x1="96.66666666666666" y1="0" x2="96.66666666666666" y2="5" style="visibility: inherit;" fill="rgb(0, 0, 0)" stroke="rgb(204, 204, 204)" stroke-width="1px"></line><line x1="128.88888888888889" y1="0" x2="128.88888888888889" y2="5" style="visibility: inherit;" fill="rgb(0, 0, 0)" stroke="rgb(204, 204, 204)" stroke-width="1px"></line><line x1="161.11111111111111" y1="0" x2="161.11111111111111" y2="5" style="visibility: inherit;" fill="rgb(0, 0, 0)" stroke="rgb(204, 204, 204)" stroke-width="1px"></line><line x1="193.33333333333331" y1="0" x2="193.33333333333331" y2="5" style="visibility: inherit;" fill="rgb(0, 0, 0)" stroke="rgb(204, 204, 204)" stroke-width="1px"></line><line x1="225.55555555555557" y1="0" x2="225.55555555555557" y2="5" style="visibility: inherit;" fill="rgb(0, 0, 0)" stroke="rgb(204, 204, 204)" stroke-width="1px"></line><line x1="257.77777777777777" y1="0" x2="257.77777777777777" y2="5" style="visibility: inherit;" fill="rgb(0, 0, 0)" stroke="rgb(204, 204, 204)" stroke-width="1px"></line><line x1="290" y1="0" x2="290" y2="5" style="visibility: inherit;" fill="rgb(0, 0, 0)" stroke="rgb(204, 204, 204)" stroke-width="1px"></line></g><g transform="translate(0, 8)"><text x="0" y="0" dx="0em" dy="0.95em" style="text-anchor: middle; visibility: hidden; font-family: Roboto, sans-serif; font-size: 12px; font-weight: 200;" fill="rgb(50, 49, 63)" stroke="none" stroke-width="1px">-20</text><text x="32.22222222222222" y="0" dx="0em" dy="0.95em" style="text-anchor: middle; visibility: inherit; font-family: Roboto, sans-serif; font-size: 12px; font-weight: 200;" fill="rgb(50, 49, 63)" stroke="none" stroke-width="1px">0</text><text x="64.44444444444444" y="0" dx="0em" dy="0.95em" style="text-anchor: middle; visibility: inherit; font-family: Roboto, sans-serif; font-size: 12px; font-weight: 200;" fill="rgb(50, 49, 63)" stroke="none" stroke-width="1px">20</text><text x="96.66666666666666" y="0" dx="0em" dy="0.95em" style="text-anchor: middle; visibility: inherit; font-family: Roboto, sans-serif; font-size: 12px; font-weight: 200;" fill="rgb(50, 49, 63)" stroke="none" stroke-width="1px">40</text><text x="128.88888888888889" y="0" dx="0em" dy="0.95em" style="text-anchor: middle; visibility: inherit; font-family: Roboto, sans-serif; font-size: 12px; font-weight: 200;" fill="rgb(50, 49, 63)" stroke="none" stroke-width="1px">60</text><text x="161.11111111111111" y="0" dx="0em" dy="0.95em" style="text-anchor: middle; visibility: inherit; font-family: Roboto, sans-serif; font-size: 12px; font-weight: 200;" fill="rgb(50, 49, 63)" stroke="none" stroke-width="1px">80</text><text x="193.33333333333331" y="0" dx="0em" dy="0.95em" style="text-anchor: middle; visibility: inherit; font-family: Roboto, sans-serif; font-size: 12px; font-weight: 200;" fill="rgb(50, 49, 63)" stroke="none" stroke-width="1px">100</text><text x="225.55555555555557" y="0" dx="0em" dy="0.95em" style="text-anchor: middle; visibility: inherit; font-family: Roboto, sans-serif; font-size: 12px; font-weight: 200;" fill="rgb(50, 49, 63)" stroke="none" stroke-width="1px">120</text><text x="257.77777777777777" y="0" dx="0em" dy="0.95em" style="text-anchor: middle; visibility: inherit; font-family: Roboto, sans-serif; font-size: 12px; font-weight: 200;" fill="rgb(50, 49, 63)" stroke="none" stroke-width="1px">140</text><text x="290" y="0" dx="0em" dy="0.95em" style="text-anchor: middle; visibility: hidden; font-family: Roboto, sans-serif; font-size: 12px; font-weight: 200;" fill="rgb(50, 49, 63)" stroke="none" stroke-width="1px">160</text></g><line x1="0" y1="0" x2="290" y2="0" fill="rgb(0, 0, 0)" stroke="rgb(204, 204, 204)" stroke-width="1px"></line></g></g></g></g></svg>