<svg viewBox="0 0 330 200" xmlns="http://www.w3.org/2000/svg"><g><g><g><g><g><line x1="40" y1="161.20553196855735" x2="35" y2="161.20553196855735" style="visibility: inherit;" fill="rgb(0, 0, 0)" stroke="rgb(204, 204, 204)" stroke-width="1px"></line><line x1="40" y1="137.5633102106731" x2="35" y2="137.5633102106731" style="visibility: inherit;" fill="rgb(0, 0, 0)" stroke="rgb(204, 204, 204)" stroke-width="1px"></line><line x1="40" y1="113.92108845278888" x2="35" y2="113.92108845278888" style="visibility: inherit;" fill="rgb(0, 0, 0)" stroke="rgb(204, 204, 204)" stroke-width="1px"></line><line x1="40" y1="90.27886669490464" x2="35" y2="90.27886669490464" style="visibility: inherit;" fill="rgb(0, 0, 0)" stroke="rgb(204, 204, 204)" stroke-width="1px"></line><line x1="40" y1="66.63664493702039" x2="35" y2="66.63664493702039" style="visibility: inherit;" fill="rgb(0, 0, 0)" stroke="rgb(204, 204, 204)" stroke-width="1px"></line><line x1="40" y1="42.99442317913616" x2="35" y2="42.99442317913616" style="visibility: inherit;" fill="rgb(0, 0, 0)" stroke="rgb(204, 204, 204)" stroke-width="1px"></line><line x1="40" y1="19.352201421251923" x2="35" y2="19.352201421251923" style="visibility: inherit;" fill="rgb(0, 0, 0)" stroke="rgb(204, 204, 204)" stroke-width="1px"></line></g><g transform="translate(30, 0)"><text x="0" y="161.20553196855735" dx="0em" dy="0.3em" style="text-anchor: end; visibility: inherit; font-family: Roboto, sans-serif; font-size: 12px; font-weight: 200;" fill="rgb(50, 49, 63)" stroke="none" stroke-width="1px">70</text><text x="0" y="137.5633102106731" dx="0em" dy="0.3em" style="text-anchor: end; visibility: inherit; font-family: Roboto, sans-serif; font-size: 12px; font-weight: 200;" fill="rgb(50, 49, 63)" stroke="none" stroke-width="1px">80</text><text x="0" y="113.92108845278888" dx="0em" dy="0.3em" style="text-anchor: end; visibility: inherit; font-family: Roboto, sans-serif; font-size: 12px; font-weight: 200;" fill="rgb(50, 49, 63)" stroke="none" stroke-width="1px">90</text><text x="0" y="90.27886669490464" dx="0em" dy="0.3em" style="text-anchor: end; visibility: inherit; font-family: Roboto, sans-serif; font-size: 12px; font-weight: 200;" fill="rgb(50, 49, 63)" stroke="none" stroke-width="1px">100</text><text x="0" y="66.63664493702039" dx="0em" dy="0.3em" style="text-anchor: end; visibility: inherit; font-family: Roboto, sans-serif; font-size: 12px; font-weight: 200;" fill="rgb(50, 49, 63)" stroke="none" stroke-width="1px">110</text><text x="0" y="42.99442317913616" dx="0em" dy="0.3em" style="text-anchor: end; visibility: inherit; font-family: Roboto, sans-serif; font-size: 12px; font-weight: 200;" fill="rgb(50, 49, 63)" stroke="none" stroke-width="1px">120</text><text x="0" y="19.352201421251923" dx="0em" dy="0.3em" style="text-anchor: end; visibility: inherit; font-family: Roboto, sans-serif; font-size: 12px; font-weight: 200;" fill="rgb(50, 49, 63)" stroke="none" stroke-width="1px">130</text></g><line x1="40" y1="0" x2="40" y2="178" fill="rgb(0, 0, 0)" stroke="rgb(204, 204, 204)" stroke-width="1px"></line></g></g><g transform="translate(40, 0)" clip-path="url(#clip_0)"><clipPath id="clip_0"><rect width="290" height="178"></rect></clipPath><g><g><g><line x1="2.4964791046282073" y1="0" x2="2.4964791046282073" y2="178" fill="rgb(0, 0, 0)" stroke="rgb(60, 60, 60)" stroke-width="1px" opacity="0.25"></line><line x1="30.315198214248294" y1="0" x2="30.315198214248294" y2="178" fill="rgb(0, 0, 0)" stroke="rgb(60, 60, 60)" stroke-width="1px" opacity="0.25"></line><line x1="58.133917323868374" y1="0" x2="58.133917323868374" y2="178" fill="rgb(0, 0, 0)" stroke="rgb(60, 60, 60)" stroke-width="1px" opacity="0.25"></line><line x1="85.95263643348846" y1="0" x2="85.95263643348846" y2="178" fill="rgb(0, 0, 0)" stroke="rgb(60, 60, 60)" stroke-width="1px" opacity="0.25"></line><line x1="113.77135554310854" y1="0" x2="113.77135554310854" y2="178" fill="rgb(0, 0, 0)" stroke="rgb(60, 60, 60)" stroke-width="1px" opacity="0.25"></line><line x1="141.59007465272862" y1="0" x2="141.59007465272862" y2="178" fill="rgb(0, 0, 0)" stroke="rgb(60, 60, 60)" stroke-width="1px" opacity="0.25"></line><line x1="169.4087937623487" y1="0" x2="169.4087937623487" y2="178" fill="rgb(0, 0, 0)" stroke="rgb(60, 60, 60)" stroke-width="1px" opacity="0.25"></line><line x1="197.22751287196877" y1="0" x2="197.22751287196877" y2="178" fill="rgb(0, 0, 0)" stroke="rgb(60, 60, 60)" stroke-width="1px" opacity="0.25"></line><line x1="225.04623198158885" y1="0" x2="225.04623198158885" y2="178" fill="rgb(0, 0, 0)" stroke="rgb(60, 60, 60)" stroke-width="1px" opacity="0.25"></line><line x1="252.86495109120895" y1="0" x2="252.86495109120895" y2="178" fill="rgb(0, 0, 0)" stroke="rgb(60, 60, 60)" stroke-width="1px" opacity="0.25"></line><line x1="280.683670200829" y1="0" x2="280.683670200829" y2="178" fill="rgb(0, 0, 0)" stroke="rgb(60, 60, 60)" stroke-width="1px" opacity="0.25"></line></g><g><line x1="0" y1="161.20553196855735" x2="290" y2="161.20553196855735" fill="rgb(0, 0, 0)" stroke="rgb(60, 60, 60)" stroke-width="1px" opacity="0.25"></line><line x1="0" y1="137.5633102106731" x2="290" y2="137.5633102106731" fill="rgb(0, 0, 0)" stroke="rgb(60, 60, 60)" stroke-width="1px" opacity="0.25"></line><line x1="0" y1="113.92108845278888" x2="290" y2="113.92108845278888" fill="rgb(0, 0, 0)" stroke="rgb(60, 60, 60)" stroke-width="1px" opacity="0.25"></line><line x1="0" y1="90.27886669490464" x2="290" y2="90.27886669490464" fill="rgb(0, 0, 0)" stroke="rgb(60, 60, 60)" stroke-width="1px" opacity="0.25"></line><line x1="0" y1="66.63664493702039" x2="290" y2="66.63664493702039" fill="rgb(0, 0, 0)" stroke="rgb(60, 60, 60)" stroke-width="1px" opacity="0.25"></line><line x1="0" y1="42.99442317913616" x2="290" y2="42.99442317913616" fill="rgb(0, 0, 0)" stroke="rgb(60, 60, 60)" stroke-width="1px" opacity="0.25"></line><line x1="0" y1="19.352201421251923" x2="290" y2="19.352201421251923" fill="rgb(0, 0, 0)" stroke="rgb(60, 60, 60)" stroke-width="1px" opacity="0.25"></line></g></g></g><g><g><line x1="0" y1="326.701084273747" x2="290" y2="326.701084273747" fill="rgb(0, 0, 0)" stroke="rgb(153, 153, 153)" stroke-width="1.5px"></line></g></g><g><g><line x1="2.4964791046282073" y1="0" x2="2.4964791046282073" y2="178" fill="rgb(0, 0, 0)" stroke="rgb(153, 153, 153)" stroke-width="1.5px"></line></g></g><g><g><g><g><g><path stroke="rgb(0, 119, 187)" stroke-width="2px" d="M2.4964791046282073,196.76677260991693L3.8874150601092117,102.08733061758142L5.278351015590216,101.50054498351727L6.6692869710712195,135.13152790594208L8.060222926552225,104.8421824925405L9.451158882033228,92.96798389799187L10.842094837514232,111.56608299598935L12.233030792995237,116.53349605701669L13.62396674847624,120.03750443601066L15.014902703957244,105.65786725870345L16.40583865943825,110.0484607062679L17.796774614919254,120.26659558491787L19.187710570400256,128.26748888605772L20.57864652588126,82.74685762725234L21.969582481362266,89.01262897914714L23.36051843684327,100.3061735829063L24.751454392324277,116.35525696305224L26.142390347805282,122.06157077461866L27.533326303286287,132.55734173969745L28.92426225876729,130.68782347480436L30.315198214248294,136.7980806187797L31.7061341697293,137.8446789432432L33.0970701252103,143.8580684981925L34.48800608069131,141.0889184405964L35.87894203617231,108.55770925222652L37.26987799165332,105.4180368736809L38.66081394713432,124.22570196555326L40.05174990261532,127.59390573582795L41.442685858096326,140.8772041051481L42.83362181357733,138.87779520732414L44.224557769058336,133.50389643162038L45.61549372453934,138.9259064035739L47.00642968002035,138.89836783889575L48.397365635501345,147.27126071198427L49.78830159098235,153.95279830022992L51.179237546463355,143.83179938827635L52.57017350194436,145.62624378829378L53.961109457425366,137.0338400180668L55.35204541290637,152.09444545577398L56.74298136838737,155.79999555740767L58.133917323868374,164.05994090583857L59.52485327934938,139.74124623761122L60.915789234830385,133.54749526498983L62.30672519031139,141.4886219834424L63.697661145792395,141.96691707947693L65.0885971012734,153.54071581053736L66.4795330567544,128.21637929152786L67.8704690122354,106.02766155740197L69.26140496771642,103.5007379227289L70.65234092319741,109.01284195570125L72.04327687867841,115.25995274727255L73.43421283415942,105.64269609308054L74.82514878964042,101.56428773708575L76.21608474512144,101.39808749707036L77.60702070060243,83.77929018267643L78.99795665608343,65.24850439939917L80.38889261156444,82.84864483715671L81.77982856704544,88.89662593400311L83.17076452252645,80.92552778780907L84.56170047800745,89.54145349911312L85.95263643348846,94.42175901089838L87.34357238896946,96.7979467834709L88.73450834445046,95.38048932010344L90.12544429993147,92.36254753645025L91.51638025541247,80.72484918152743L92.90731621089348,89.56926623538257L94.29825216637448,96.21139715688642L95.6891881218555,112.68416121169008L97.08012407733649,105.612706801573L98.47106003281749,84.49081969109524L99.8619959882985,83.33890560459031L101.2529319437795,76.18754044769584L102.64386789926051,64.6271139524009L104.03480385474151,77.62861689780192L105.42573981022252,72.87439531725298L106.81667576570352,75.22789655670213L108.20761172118452,80.14689616932158L109.59854767666553,94.12594864763699L110.98948363214653,103.99091127929987L112.38041958762754,116.35815942309576L113.77135554310854,84.55492636658002L115.16229149858954,92.55604238092182L116.55322745407055,95.4318897626676L117.94416340955155,110.88116210895306L119.33509936503256,119.52953501794119L120.72603532051356,86.60795379595633L122.11697127599457,66.61151337581894L123.50790723147557,80.1061642101069L124.89884318695657,79.67554382336577L126.28977914243758,94.96572184766568L127.68071509791858,107.29515104537998L129.0716510533996,78.7687255868056L130.4625870088806,74.25484900555445L131.8535229643616,82.3801951094627L133.2444589198426,92.45252987225342L134.6353948753236,114.48618480518401L136.0263308308046,115.56121030968689L137.4172667862856,115.08439233109819L138.80820274176662,88.46810792498394L140.19913869724763,101.85460721324857L141.59007465272862,100.39691562169446L142.98101060820963,113.37869062362813L144.37194656369064,49.76947901470986L145.76288251917163,60.883086262698555L147.15381847465264,70.7747671845077L148.54475443013362,85.77098548831184L149.93569038561463,98.96564002771413L151.32662634109565,95.54783727620153L152.71756229657663,98.8650636263088L154.10849825205764,104.26081830944561L155.49943420753866,113.81000841319576L156.89037016301964,115.6655545318622L158.28130611850065,125.45994458940166L159.67224207398166,120.66759830301716L161.06317802946268,130.59225658252132L162.45411398494366,137.56604143743843L163.84504994042467,110.54522688270256L165.23598589590569,119.63771810061762L166.62692185138667,129.12498943601656L168.01785780686768,96.96054091775378L169.4087937623487,103.5973754704599L170.7997297178297,99.99510877096556L172.1906656733107,116.56417488029528L173.5816016287917,124.90291026730567L174.97253758427271,92.32429892716529L176.3634735397537,66.8691069267211L177.7544094952347,57.77007811035211L179.14534545071572,38.642892122145916L180.53628140619674,62.16866385119667L181.92721736167772,68.57233029642018L183.31815331715873,12.312113000943855L184.70908927263974,27.34175829311056L186.10002522812073,23.058869161919933L187.49096118360174,25.456117192765593L188.88189713908275,49.67955183977497L190.27283309456377,66.28517475598693L191.66376905004475,65.98932402904191L193.05470500552576,71.1126334953082L194.44564096100677,88.41114595400023L195.83657691648776,90.09809619341377L197.22751287196877,100.52849189452694L198.61844882744978,73.44772278203966L200.0093847829308,70.56502074003349L201.40032073841178,79.35143732603325L202.7912566938928,84.61208530107386L204.1821926493738,89.62462613369703L205.5731286048548,78.84649744283787L206.9640645603358,73.783206239814" style="fill: none;" fill="none"></path></g></g></g></g><g opacity="0.2"><g><g><g><path stroke="rgb(0, 119, 187)" stroke-width="2px" d="M2.4964791046282073,196.76677260991693L3.8874150601092117,20.7576899461652L5.278351015590216,100.56351815340736L6.6692869710712195,210.15286032918922L8.060222926552225,20.783519766078904L9.451158882033228,54.461293951035515L10.842094837514232,179.34946530090045L12.233030792995237,136.35221272571096L13.62396674847624,135.056356634761L15.014902703957244,40.36225269691053L16.40583865943825,130.9458438269018L17.796774614919254,170.82061028109874L19.187710570400256,169.1431330309908L20.57864652588126,-156.12412316919588L21.969582481362266,122.63870678641523L23.36051843684327,162.06983886856082L24.751454392324277,205.53705166926818L26.142390347805282,154.20126763909505L27.533326303286287,192.3533185831676L28.92426225876729,119.93276258669863L30.315198214248294,172.24184561661585L31.7061341697293,143.95869786345455L33.0970701252103,179.19940162298698L34.48800608069131,124.73034499674561L35.87894203617231,-84.46578134876984L37.26987799165332,86.7185723414083L38.66081394713432,236.6031550859181L40.05174990261532,147.77483730469947L41.442685858096326,220.6538365294692L42.83362181357733,126.84541402835248L44.224557769058336,101.10769401721778L45.61549372453934,171.66089111956236L47.00642968002035,138.73189311076337L48.397365635501345,197.9421917542441L49.78830159098235,194.4260894809074L51.179237546463355,82.47449122596463L52.57017350194436,156.51238716835698L53.961109457425366,84.87628568868058L55.35204541290637,243.5619647043591L59.52485327934938,-8.121708175059915L60.915789234830385,95.87767857462111L62.30672519031139,189.79733885465393L63.697661145792395,144.87715358984136L65.0885971012734,223.97509682326137L67.8704690122354,-29.04360977898792L69.26140496771642,88.11666545698876L70.65234092319741,142.5740968605106L72.04327687867841,153.29953275283395L73.43421283415942,47.07766316038256L74.82514878964042,76.72699554349069L76.21608474512144,100.38588402874942L77.60702070060243,-23.52865462607227L80.38889261156444,190.05062260551162L81.77982856704544,125.73575991433631L83.17076452252645,32.37122431144328L84.56170047800745,142.02469009741594L85.95263643348846,124.15029237887907L87.34357238896946,111.27279237070093L88.73450834445046,86.7457549801024L90.12544429993147,73.97792348105506L91.51638025541247,9.829908439461988L92.90731621089348,143.44845069465646L94.29825216637448,136.67479687329242L95.6891881218555,213.0357171502142L97.08012407733649,62.533401275407854L98.47106003281749,-44.1843214940182L99.8619959882985,76.32138439796033L101.2529319437795,32.620900545553255L102.64386789926051,-5.800054696894663L104.03480385474151,156.83515169177585L105.42573981022252,43.91111122231658L106.81667576570352,89.56573278421455L108.20761172118452,110.1141301416669L109.59854767666553,179.2884080799452L110.98948363214653,164.08979572111394L112.38041958762754,191.701431288062L113.77135554310854,-109.19566940609289L115.16229149858954,141.30021054655427L116.55322745407055,112.95205534159898L117.94416340955155,205.0008844926377L119.33509936503256,172.21698982622402L120.72603532051356,-113.95636495739436L122.11697127599457,-55.210516057599335L123.50790723147557,162.3181081711392L124.89884318695657,77.05212299037933L126.28977914243758,188.11639838846816L129.0716510533996,-95.01975197007387L130.4625870088806,46.75543976447585L131.8535229643616,131.88138114508905L133.2444589198426,153.81515512158614L134.6353948753236,248.71951415428583L136.0263308308046,122.11047614662974L137.4172667862856,112.17952366765763L138.80820274176662,-73.6835270676698L140.19913869724763,183.4077953790038L141.59007465272862,91.51637120246015L142.98101060820963,192.46622483857954L144.37194656369064,-337.75039801049377L145.76288251917163,128.58937781212097L147.15381847465264,131.03684343686314L148.54475443013362,177.13091465138513L149.93569038561463,179.3500875975394L151.32662634109565,74.72590600352817L152.71756229657663,119.07426378865902L154.10849825205764,137.1328252371672L155.49943420753866,171.98556762685755L156.89037016301964,126.96990943131644L158.28130611850065,185.12931138980957L159.67224207398166,91.47167406995585L161.06317802946268,191.0552438694178L163.84504994042467,-54.070937592160796L165.23598589590569,175.03097915253494L166.62692185138667,186.92332946845275L168.01785780686768,-98.99166398448551L169.4087937623487,144.03028903331312L170.7997297178297,78.04938492012016L172.1906656733107,217.5062150355369L173.5816016287917,175.70414177766025L174.97253758427271,-106.15106957168369L176.3634735397537,-88.20897680137575L177.7544094952347,2.3369879289367352L179.14534545071572,-77.88372274187742L180.53628140619674,205.49233649918014L181.92721736167772,107.58473781158395L183.31815331715873,-330.43630210515323L184.70908927263974,118.90534181694684L186.10002522812073,-3.033341877562672L187.49096118360174,40.06062822163333L188.88189713908275,197.25352582589545L190.27283309456377,167.44992700786278L191.66376905004475,64.18694265189465L193.05470500552576,102.32485213031613L194.44564096100677,193.7971189359417L195.83657691648776,100.37533204226231L197.22751287196877,164.07253375347608L198.61844882744978,-91.5337003112457L200.0093847829308,53.00302745610302L201.40032073841178,132.88003196877776L202.7912566938928,116.66099742268528L204.1821926493738,120.1620202760165L205.5731286048548,13.183997135658407L206.9640645603358,42.936630760837616" style="fill: none;" fill="none"></path></g></g></g></g></g></g><g transform="translate(40, 178)" clip-path="url(#clip_1)"><clipPath id="clip_1"><rect width="290" height="22"></rect></clipPath><g><g><line x1="2.4964791046282073" y1="0" x2="2.4964791046282073" y2="5" style="visibility: inherit;" fill="rgb(0, 0, 0)" stroke="rgb(204, 204, 204)" stroke-width="1px"></line><line x1="30.315198214248294" y1="0" x2="30.315198214248294" y2="5" style="visibility: inherit;" fill="rgb(0, 0, 0)" stroke="rgb(204, 204, 204)" stroke-width="1px"></line><line x1="58.133917323868374" y1="0" x2="58.133917323868374" y2="5" style="visibility: inherit;" fill="rgb(0, 0, 0)" stroke="rgb(204, 204, 204)" stroke-width="1px"></line><line x1="85.95263643348846" y1="0" x2="85.95263643348846" y2="5" style="visibility: inherit;" fill="rgb(0, 0, 0)" stroke="rgb(204, 204, 204)" stroke-width="1px"></line><line x1="113.77135554310854" y1="0" x2="113.77135554310854" y2="5" style="visibility: inherit;" fill="rgb(0, 0, 0)" stroke="rgb(204, 204, 204)" stroke-width="1px"></line><line x1="141.59007465272862" y1="0" x2="141.59007465272862" y2="5" style="visibility: inherit;" fill="rgb(0, 0, 0)" stroke="rgb(204, 204, 204)" stroke-width="1px"></line><line x1="169.4087937623487" y1="0" x2="169.4087937623487" y2="5" style="visibility: inherit;" fill="rgb(0, 0, 0)" stroke="rgb(204, 204, 204)" stroke-width="1px"></line><line x1="197.22751287196877" y1="0" x2="197.22751287196877" y2="5" style="visibility: inherit;" fill="rgb(0, 0, 0)" stroke="rgb(204, 204, 204)" stroke-width="1px"></line><line x1="225.04623198158885" y1="0" x2="225.04623198158885" y2="5" style="visibility: inherit;" fill="rgb(0, 0, 0)" stroke="rgb(204, 204, 204)" stroke-width="1px"></line><line x1="252.86495109120895" y1="0" x2="252.86495109120895" y2="5" style="visibility: inherit;" fill="rgb(0, 0, 0)" stroke="rgb(204, 204, 204)" stroke-width="1px"></line><line x1="280.683670200829" y1="0" x2="280.683670200829" y2="5" style="visibility: inherit;" fill="rgb(0, 0, 0)" stroke="rgb(204, 204, 204)" stroke-width="1px"></line></g><g transform="translate(0, 8)"><text x="2.4964791046282073" y="0" dx="0em" dy="0.95em" style="text-anchor: middle; visibility: inherit; font-family: Roboto, sans-serif; font-size: 12px; font-weight: 200;" fill="rgb(50, 49, 63)" stroke="none" stroke-width="1px">0</text><text x="30.315198214248294" y="0" dx="0em" dy="0.95em" style="text-anchor: middle; visibility: inherit; font-family: Roboto, sans-serif; font-size: 12px; font-weight: 200;" fill="rgb(50, 49, 63)" stroke="none" stroke-width="1px">20</text><text x="58.133917323868374" y="0" dx="0em" dy="0.95em" style="text-anchor: middle; visibility: inherit; font-family: Roboto, sans-serif; font-size: 12px; font-weight: 200;" fill="rgb(50, 49, 63)" stroke="none" stroke-width="1px">40</text><text x="85.95263643348846" y="0" dx="0em" dy="0.95em" style="text-anchor: middle; visibility: inherit; font-family: Roboto, sans-serif; font-size: 12px; font-weight: 200;" fill="rgb(50, 49, 63)" stroke="none" stroke-width="1px">60</text><text x="113.77135554310854" y="0" dx="0em" dy="0.95em" style="text-anchor: middle; visibility: inherit; font-family: Roboto, sans-serif; font-size: 12px; font-weight: 200;" fill="rgb(50, 49, 63)" stroke="none" stroke-width="1px">80</text><text x="141.59007465272862" y="0" dx="0em" dy="0.95em" style="text-anchor: middle; visibility: inherit; font-family: Roboto, sans-serif; font-size: 12px; font-weight: 200;" fill="rgb(50, 49, 63)" stroke="none" stroke-width="1px">100</text><text x="169.4087937623487" y="0" dx="0em" dy="0.95em" style="text-anchor: middle; visibility: inherit; font-family: Roboto, sans-serif; font-size: 12px; font-weight: 200;" fill="rgb(50, 49, 63)" stroke="none" stroke-width="1px">120</text><text x="197.22751287196877" y="0" dx="0em" dy="0.95em" style="text-anchor: middle; visibility: inherit; font-family: Roboto, sans-serif; font-size: 12px; font-weight: 200;" fill="rgb(50, 49, 63)" stroke="none" stroke-width="1px">140</text><text x="225.04623198158885" y="0" dx="0em" dy="0.95em" style="text-anchor: middle; visibility: inherit; font-family: Roboto, sans-serif; font-size: 12px; font-weight: 200;" fill="rgb(50, 49, 63)" stroke="none" stroke-width="1px">160</text><text x="252.86495109120895" y="0" dx="0em" dy="0.95em" style="text-anchor: middle; visibility: inherit; font-family: Roboto, sans-serif; font-size: 12px; font-weight: 200;" fill="rgb(50, 49, 63)" stroke="none" stroke-width="1px">180</text><text x="280.683670200829" y="0" dx="0em" dy="0.95em" style="text-anchor: middle; visibility: inherit; font-family: Roboto, sans-serif; font-size: 12px; font-weight: 200;" fill="rgb(50, 49, 63)" stroke="none" stroke-width="1px">200</text></g><line x1="0" y1="0" x2="290" y2="0" fill="rgb(0, 0, 0)" stroke="rgb(204, 204, 204)" stroke-width="1px"></line></g></g></g></g></svg>