<svg viewBox="0 0 330 200" xmlns="http://www.w3.org/2000/svg"><g><g><g><g><g><line x1="40" y1="161.20553196855735" x2="35" y2="161.20553196855735" style="visibility: inherit;" fill="rgb(0, 0, 0)" stroke="rgb(204, 204, 204)" stroke-width="1px"></line><line x1="40" y1="137.5633102106731" x2="35" y2="137.5633102106731" style="visibility: inherit;" fill="rgb(0, 0, 0)" stroke="rgb(204, 204, 204)" stroke-width="1px"></line><line x1="40" y1="113.92108845278888" x2="35" y2="113.92108845278888" style="visibility: inherit;" fill="rgb(0, 0, 0)" stroke="rgb(204, 204, 204)" stroke-width="1px"></line><line x1="40" y1="90.27886669490464" x2="35" y2="90.27886669490464" style="visibility: inherit;" fill="rgb(0, 0, 0)" stroke="rgb(204, 204, 204)" stroke-width="1px"></line><line x1="40" y1="66.63664493702039" x2="35" y2="66.63664493702039" style="visibility: inherit;" fill="rgb(0, 0, 0)" stroke="rgb(204, 204, 204)" stroke-width="1px"></line><line x1="40" y1="42.99442317913616" x2="35" y2="42.99442317913616" style="visibility: inherit;" fill="rgb(0, 0, 0)" stroke="rgb(204, 204, 204)" stroke-width="1px"></line><line x1="40" y1="19.352201421251923" x2="35" y2="19.352201421251923" style="visibility: inherit;" fill="rgb(0, 0, 0)" stroke="rgb(204, 204, 204)" stroke-width="1px"></line></g><g transform="translate(30, 0)"><text x="0" y="161.20553196855735" dx="0em" dy="0.3em" style="text-anchor: end; visibility: inherit; font-family: Roboto, sans-serif; font-size: 12px; font-weight: 200;" fill="rgb(50, 49, 63)" stroke="none" stroke-width="1px">70</text><text x="0" y="137.5633102106731" dx="0em" dy="0.3em" style="text-anchor: end; visibility: inherit; font-family: Roboto, sans-serif; font-size: 12px; font-weight: 200;" fill="rgb(50, 49, 63)" stroke="none" stroke-width="1px">80</text><text x="0" y="113.92108845278888" dx="0em" dy="0.3em" style="text-anchor: end; visibility: inherit; font-family: Roboto, sans-serif; font-size: 12px; font-weight: 200;" fill="rgb(50, 49, 63)" stroke="none" stroke-width="1px">90</text><text x="0" y="90.27886669490464" dx="0em" dy="0.3em" style="text-anchor: end; visibility: inherit; font-family: Roboto, sans-serif; font-size: 12px; font-weight: 200;" fill="rgb(50, 49, 63)" stroke="none" stroke-width="1px">100</text><text x="0" y="66.63664493702039" dx="0em" dy="0.3em" style="text-anchor: end; visibility: inherit; font-family: Roboto, sans-serif; font-size: 12px; font-weight: 200;" fill="rgb(50, 49, 63)" stroke="none" stroke-width="1px">110</text><text x="0" y="42.99442317913616" dx="0em" dy="0.3em" style="text-anchor: end; visibility: inherit; font-family: Roboto, sans-serif; font-size: 12px; font-weight: 200;" fill="rgb(50, 49, 63)" stroke="none" stroke-width="1px">120</text><text x="0" y="19.352201421251923" dx="0em" dy="0.3em" style="text-anchor: end; visibility: inherit; font-family: Roboto, sans-serif; font-size: 12px; font-weight: 200;" fill="rgb(50, 49, 63)" stroke="none" stroke-width="1px">130</text></g><line x1="40" y1="0" x2="40" y2="178" fill="rgb(0, 0, 0)" stroke="rgb(204, 204, 204)" stroke-width="1px"></line></g></g><g transform="translate(40, 0)" clip-path="url(#clip_0)"><clipPath id="clip_0"><rect width="290" height="178"></rect></clipPath><g><g><g><line x1="2.4964791046282073" y1="0" x2="2.4964791046282073" y2="178" fill="rgb(0, 0, 0)" stroke="rgb(60, 60, 60)" stroke-width="1px" opacity="0.25"></line><line x1="30.315198214248294" y1="0" x2="30.315198214248294" y2="178" fill="rgb(0, 0, 0)" stroke="rgb(60, 60, 60)" stroke-width="1px" opacity="0.25"></line><line x1="58.133917323868374" y1="0" x2="58.133917323868374" y2="178" fill="rgb(0, 0, 0)" stroke="rgb(60, 60, 60)" stroke-width="1px" opacity="0.25"></line><line x1="85.95263643348846" y1="0" x2="85.95263643348846" y2="178" fill="rgb(0, 0, 0)" stroke="rgb(60, 60, 60)" stroke-width="1px" opacity="0.25"></line><line x1="113.77135554310854" y1="0" x2="113.77135554310854" y2="178" fill="rgb(0, 0, 0)" stroke="rgb(60, 60, 60)" stroke-width="1px" opacity="0.25"></line><line x1="141.59007465272862" y1="0" x2="141.59007465272862" y2="178" fill="rgb(0, 0, 0)" stroke="rgb(60, 60, 60)" stroke-width="1px" opacity="0.25"></line><line x1="169.4087937623487" y1="0" x2="169.4087937623487" y2="178" fill="rgb(0, 0, 0)" stroke="rgb(60, 60, 60)" stroke-width="1px" opacity="0.25"></line><line x1="197.22751287196877" y1="0" x2="197.22751287196877" y2="178" fill="rgb(0, 0, 0)" stroke="rgb(60, 60, 60)" stroke-width="1px" opacity="0.25"></line><line x1="225.04623198158885" y1="0" x2="225.04623198158885" y2="178" fill="rgb(0, 0, 0)" stroke="rgb(60, 60, 60)" stroke-width="1px" opacity="0.25"></line><line x1="252.86495109120895" y1="0" x2="252.86495109120895" y2="178" fill="rgb(0, 0, 0)" stroke="rgb(60, 60, 60)" stroke-width="1px" opacity="0.25"></line><line x1="280.683670200829" y1="0" x2="280.683670200829" y2="178" fill="rgb(0, 0, 0)" stroke="rgb(60, 60, 60)" stroke-width="1px" opacity="0.25"></line></g><g><line x1="0" y1="161.20553196855735" x2="290" y2="161.20553196855735" fill="rgb(0, 0, 0)" stroke="rgb(60, 60, 60)" stroke-width="1px" opacity="0.25"></line><line x1="0" y1="137.5633102106731" x2="290" y2="137.5633102106731" fill="rgb(0, 0, 0)" stroke="rgb(60, 60, 60)" stroke-width="1px" opacity="0.25"></line><line x1="0" y1="113.92108845278888" x2="290" y2="113.92108845278888" fill="rgb(0, 0, 0)" stroke="rgb(60, 60, 60)" stroke-width="1px" opacity="0.25"></line><line x1="0" y1="90.27886669490464" x2="290" y2="90.27886669490464" fill="rgb(0, 0, 0)" stroke="rgb(60, 60, 60)" stroke-width="1px" opacity="0.25"></line><line x1="0" y1="66.63664493702039" x2="290" y2="66.63664493702039" fill="rgb(0, 0, 0)" stroke="rgb(60, 60, 60)" stroke-width="1px" opacity="0.25"></line><line x1="0" y1="42.99442317913616" x2="290" y2="42.99442317913616" fill="rgb(0, 0, 0)" stroke="rgb(60, 60, 60)" stroke-width="1px" opacity="0.25"></line><line x1="0" y1="19.352201421251923" x2="290" y2="19.352201421251923" fill="rgb(0, 0, 0)" stroke="rgb(60, 60, 60)" stroke-width="1px" opacity="0.25"></line></g></g></g><g><g><line x1="0" y1="326.701084273747" x2="290" y2="326.701084273747" fill="rgb(0, 0, 0)" stroke="rgb(153, 153, 153)" stroke-width="1.5px"></line></g></g><g><g><line x1="2.4964791046282073" y1="0" x2="2.4964791046282073" y2="178" fill="rgb(0, 0, 0)" stroke="rgb(153, 153, 153)" stroke-width="1.5px"></line></g></g><g><g><g><g><g><path stroke="rgb(0, 119, 187)" stroke-width="2px" d="M2.4964791046282073,196.76677260991693L3.8874150601092117,99.03824253565168L5.278351015590216,99.6626898431553L6.6692869710712195,137.03434414789112L8.060222926552225,102.51986198667882L9.451158882033228,89.52371302375023L10.842094837514232,112.19539259057778L12.233030792995237,117.98342354873569L13.62396674847624,121.91452646733248L15.014902703957244,103.70591175051365L16.40583865943825,109.64377402102326L17.796774614919254,122.7308872342751L19.187710570400256,132.51353616772766L20.57864652588126,72.38343459470478L21.969582481362266,82.75609232573412L23.36051843684327,99.00616089489303L24.751454392324277,120.70490800016394L26.142390347805282,127.49579934353666L27.533326303286287,140.59577073181154L28.92426225876729,136.43464387154236L30.315198214248294,143.62839127555853L31.7061341697293,143.69462461993064L33.0970701252103,150.80326036355456L34.48800608069131,145.589378974931L35.87894203617231,99.6292614672046L37.26987799165332,97.05198785098769L38.66081394713432,124.89229300131363L40.05174990261532,129.4550591591381L41.442685858096326,147.6327822304297L42.83362181357733,143.49077258901053L44.224557769058336,135.04784832999604L45.61549372453934,142.33985679631567L47.00642968002035,141.62139748028434L48.397365635501345,152.83516830685548L49.78830159098235,161.1152705428773L51.179237546463355,145.4604414911327L52.57017350194436,147.66037683490154L53.961109457425366,135.16362104292196L55.35204541290637,156.73865517158293L56.74298136838737,161.03290314447912L58.133917323868374,171.627467576421L59.52485327934938,135.8541744125554L60.915789234830385,127.89828041060802L62.30672519031139,140.21690162736743L63.697661145792395,141.14433449916072L65.0885971012734,157.62826455584585L66.4795330567544,121.10056214587749L67.8704690122354,91.22116442278259L69.26140496771642,90.60335741078852L70.65234092319741,100.9456916859518L72.04327687867841,111.36423284248974L73.43421283415942,98.5710807751919L74.82514878964042,94.2240738739392L76.21608474512144,95.45028176341513L77.60702070060243,71.77335481397922L78.99795665608343,48.014324030010215L80.38889261156444,76.27963829283313L81.77982856704544,86.12143183280348L83.17076452252645,75.4251184787418L84.56170047800745,88.6784551223919L85.95263643348846,95.73736007587239L87.34357238896946,98.82891437891281L88.73450834445046,96.42436361736412L90.12544429993147,91.95751899297927L91.51638025541247,75.6141155914759L92.90731621089348,89.11315416610843L94.29825216637448,98.57792437225275L95.6891881218555,121.35503151049969L97.08012407733649,109.6495244692934L98.47106003281749,79.03658362489259L99.8619959882985,78.49625890100761L101.2529319437795,69.36706153637388L102.64386789926051,54.408804025395376L104.03480385474151,74.79164871785845L105.42573981022252,68.64642139235012L106.81667576570352,72.80936455678774L108.20761172118452,80.23301319022548L109.59854767666553,99.94503737316397L110.98948363214653,112.70984459556551L112.38041958762754,128.4291706542994L113.77135554310854,81.14182674271228L115.16229149858954,93.11334526965072L116.55322745407055,97.06124861358391L117.94416340955155,118.54123632616513L119.33509936503256,129.22271134144623L120.72603532051356,80.83007490841656L122.11697127599457,53.75799719435139L123.50790723147557,75.36145935021217L124.89884318695657,75.69790141549713L126.28977914243758,98.06918236060999L127.68071509791858,114.85268590251022L129.0716510533996,73.08807070898074L130.4625870088806,67.84787714530722L131.8535229643616,80.59054445239944L133.2444589198426,95.16224198576761L134.6353948753236,125.72013916443618L136.0263308308046,125.00181622357013L137.4172667862856,122.45018000402563L138.80820274176662,83.41957228551159L140.19913869724763,103.31722868570907L141.59007465272862,100.96885804610838L142.98101060820963,119.17683404050649L144.37194656369064,28.248314851571713L145.76288251917163,48.2161863826182L147.15381847465264,64.69749713766727L148.54475443013362,87.07174722426103L149.93569038561463,105.43513695944009L151.32662634109565,99.32399999897459L152.71756229657663,103.25430249324492L154.10849825205764,109.99612851945463L155.49943420753866,122.33202690207577L156.89037016301964,123.25496552540952L158.28130611850065,135.56796035258395L159.67224207398166,126.79279938225034L161.06317802946268,139.58102583530243L162.45411398494366,147.63469448130127L163.84504994042467,107.49527369846925L165.23598589590569,120.93487908388548L166.62692185138667,134.06658071045908L168.01785780686768,87.6879900160386L169.4087937623487,98.90010752050077L170.7997297178297,94.75081372301777L172.1906656733107,119.1791385842433L173.5816016287917,130.42761421974592L174.97253758427271,83.34845614520911L176.3634735397537,49.20852698881409L177.7544094952347,39.88109071589312L179.14534545071572,16.44589283778594L180.53628140619674,54.06613512641735L181.92721736167772,64.71633706076865L183.31815331715873,-13.919038133268455L184.70908927263974,12.513013476829414L186.10002522812073,9.419288761304943L187.49096118360174,15.516915313911007L188.88189713908275,51.682500805799464L190.27283309456377,74.72021862001185L191.66376905004475,72.62409670235641L193.05470500552576,78.53454703252066L194.44564096100677,101.47179884130237L195.83657691648776,101.25360194829344L197.22751287196877,113.75456937752506L198.61844882744978,72.90220370945887L200.0093847829308,68.94226763504098L201.40032073841178,81.66588273745477L202.7912566938928,88.62991055981568L204.1821926493738,94.90480039333971L205.5731286048548,78.64236054506105L206.9640645603358,71.53692031800053" style="fill: none;" fill="none"></path></g></g></g></g><g opacity="0.2"><g><g><g><path stroke="rgb(0, 119, 187)" stroke-width="2px" d="M2.4964791046282073,196.76677260991693L3.8874150601092117,20.7576899461652L5.278351015590216,100.56351815340736L6.6692869710712195,210.15286032918922L8.060222926552225,20.783519766078904L9.451158882033228,54.461293951035515L10.842094837514232,179.34946530090045L12.233030792995237,136.35221272571096L13.62396674847624,135.056356634761L15.014902703957244,40.36225269691053L16.40583865943825,130.9458438269018L17.796774614919254,170.82061028109874L19.187710570400256,169.1431330309908L20.57864652588126,-156.12412316919588L21.969582481362266,122.63870678641523L23.36051843684327,162.06983886856082L24.751454392324277,205.53705166926818L26.142390347805282,154.20126763909505L27.533326303286287,192.3533185831676L28.92426225876729,119.93276258669863L30.315198214248294,172.24184561661585L31.7061341697293,143.95869786345455L33.0970701252103,179.19940162298698L34.48800608069131,124.73034499674561L35.87894203617231,-84.46578134876984L37.26987799165332,86.7185723414083L38.66081394713432,236.6031550859181L40.05174990261532,147.77483730469947L41.442685858096326,220.6538365294692L42.83362181357733,126.84541402835248L44.224557769058336,101.10769401721778L45.61549372453934,171.66089111956236L47.00642968002035,138.73189311076337L48.397365635501345,197.9421917542441L49.78830159098235,194.4260894809074L51.179237546463355,82.47449122596463L52.57017350194436,156.51238716835698L53.961109457425366,84.87628568868058L55.35204541290637,243.5619647043591L59.52485327934938,-8.121708175059915L60.915789234830385,95.87767857462111L62.30672519031139,189.79733885465393L63.697661145792395,144.87715358984136L65.0885971012734,223.97509682326137L67.8704690122354,-29.04360977898792L69.26140496771642,88.11666545698876L70.65234092319741,142.5740968605106L72.04327687867841,153.29953275283395L73.43421283415942,47.07766316038256L74.82514878964042,76.72699554349069L76.21608474512144,100.38588402874942L77.60702070060243,-23.52865462607227L80.38889261156444,190.05062260551162L81.77982856704544,125.73575991433631L83.17076452252645,32.37122431144328L84.56170047800745,142.02469009741594L85.95263643348846,124.15029237887907L87.34357238896946,111.27279237070093L88.73450834445046,86.7457549801024L90.12544429993147,73.97792348105506L91.51638025541247,9.829908439461988L92.90731621089348,143.44845069465646L94.29825216637448,136.67479687329242L95.6891881218555,213.0357171502142L97.08012407733649,62.533401275407854L98.47106003281749,-44.1843214940182L99.8619959882985,76.32138439796033L101.2529319437795,32.620900545553255L102.64386789926051,-5.800054696894663L104.03480385474151,156.83515169177585L105.42573981022252,43.91111122231658L106.81667576570352,89.56573278421455L108.20761172118452,110.1141301416669L109.59854767666553,179.2884080799452L110.98948363214653,164.08979572111394L112.38041958762754,191.701431288062L113.77135554310854,-109.19566940609289L115.16229149858954,141.30021054655427L116.55322745407055,112.95205534159898L117.94416340955155,205.0008844926377L119.33509936503256,172.21698982622402L120.72603532051356,-113.95636495739436L122.11697127599457,-55.210516057599335L123.50790723147557,162.3181081711392L124.89884318695657,77.05212299037933L126.28977914243758,188.11639838846816L129.0716510533996,-95.01975197007387L130.4625870088806,46.75543976447585L131.8535229643616,131.88138114508905L133.2444589198426,153.81515512158614L134.6353948753236,248.71951415428583L136.0263308308046,122.11047614662974L137.4172667862856,112.17952366765763L138.80820274176662,-73.6835270676698L140.19913869724763,183.4077953790038L141.59007465272862,91.51637120246015L142.98101060820963,192.46622483857954L144.37194656369064,-337.75039801049377L145.76288251917163,128.58937781212097L147.15381847465264,131.03684343686314L148.54475443013362,177.13091465138513L149.93569038561463,179.3500875975394L151.32662634109565,74.72590600352817L152.71756229657663,119.07426378865902L154.10849825205764,137.1328252371672L155.49943420753866,171.98556762685755L156.89037016301964,126.96990943131644L158.28130611850065,185.12931138980957L159.67224207398166,91.47167406995585L161.06317802946268,191.0552438694178L163.84504994042467,-54.070937592160796L165.23598589590569,175.03097915253494L166.62692185138667,186.92332946845275L168.01785780686768,-98.99166398448551L169.4087937623487,144.03028903331312L170.7997297178297,78.04938492012016L172.1906656733107,217.5062150355369L173.5816016287917,175.70414177766025L174.97253758427271,-106.15106957168369L176.3634735397537,-88.20897680137575L177.7544094952347,2.3369879289367352L179.14534545071572,-77.88372274187742L180.53628140619674,205.49233649918014L181.92721736167772,107.58473781158395L183.31815331715873,-330.43630210515323L184.70908927263974,118.90534181694684L186.10002522812073,-3.033341877562672L187.49096118360174,40.06062822163333L188.88189713908275,197.25352582589545L190.27283309456377,167.44992700786278L191.66376905004475,64.18694265189465L193.05470500552576,102.32485213031613L194.44564096100677,193.7971189359417L195.83657691648776,100.37533204226231L197.22751287196877,164.07253375347608L198.61844882744978,-91.5337003112457L200.0093847829308,53.00302745610302L201.40032073841178,132.88003196877776L202.7912566938928,116.66099742268528L204.1821926493738,120.1620202760165L205.5731286048548,13.183997135658407L206.9640645603358,42.936630760837616" style="fill: none;" fill="none"></path></g></g></g></g></g></g><g transform="translate(40, 178)" clip-path="url(#clip_1)"><clipPath id="clip_1"><rect width="290" height="22"></rect></clipPath><g><g><line x1="2.4964791046282073" y1="0" x2="2.4964791046282073" y2="5" style="visibility: inherit;" fill="rgb(0, 0, 0)" stroke="rgb(204, 204, 204)" stroke-width="1px"></line><line x1="30.315198214248294" y1="0" x2="30.315198214248294" y2="5" style="visibility: inherit;" fill="rgb(0, 0, 0)" stroke="rgb(204, 204, 204)" stroke-width="1px"></line><line x1="58.133917323868374" y1="0" x2="58.133917323868374" y2="5" style="visibility: inherit;" fill="rgb(0, 0, 0)" stroke="rgb(204, 204, 204)" stroke-width="1px"></line><line x1="85.95263643348846" y1="0" x2="85.95263643348846" y2="5" style="visibility: inherit;" fill="rgb(0, 0, 0)" stroke="rgb(204, 204, 204)" stroke-width="1px"></line><line x1="113.77135554310854" y1="0" x2="113.77135554310854" y2="5" style="visibility: inherit;" fill="rgb(0, 0, 0)" stroke="rgb(204, 204, 204)" stroke-width="1px"></line><line x1="141.59007465272862" y1="0" x2="141.59007465272862" y2="5" style="visibility: inherit;" fill="rgb(0, 0, 0)" stroke="rgb(204, 204, 204)" stroke-width="1px"></line><line x1="169.4087937623487" y1="0" x2="169.4087937623487" y2="5" style="visibility: inherit;" fill="rgb(0, 0, 0)" stroke="rgb(204, 204, 204)" stroke-width="1px"></line><line x1="197.22751287196877" y1="0" x2="197.22751287196877" y2="5" style="visibility: inherit;" fill="rgb(0, 0, 0)" stroke="rgb(204, 204, 204)" stroke-width="1px"></line><line x1="225.04623198158885" y1="0" x2="225.04623198158885" y2="5" style="visibility: inherit;" fill="rgb(0, 0, 0)" stroke="rgb(204, 204, 204)" stroke-width="1px"></line><line x1="252.86495109120895" y1="0" x2="252.86495109120895" y2="5" style="visibility: inherit;" fill="rgb(0, 0, 0)" stroke="rgb(204, 204, 204)" stroke-width="1px"></line><line x1="280.683670200829" y1="0" x2="280.683670200829" y2="5" style="visibility: inherit;" fill="rgb(0, 0, 0)" stroke="rgb(204, 204, 204)" stroke-width="1px"></line></g><g transform="translate(0, 8)"><text x="2.4964791046282073" y="0" dx="0em" dy="0.95em" style="text-anchor: middle; visibility: inherit; font-family: Roboto, sans-serif; font-size: 12px; font-weight: 200;" fill="rgb(50, 49, 63)" stroke="none" stroke-width="1px">0</text><text x="30.315198214248294" y="0" dx="0em" dy="0.95em" style="text-anchor: middle; visibility: inherit; font-family: Roboto, sans-serif; font-size: 12px; font-weight: 200;" fill="rgb(50, 49, 63)" stroke="none" stroke-width="1px">20</text><text x="58.133917323868374" y="0" dx="0em" dy="0.95em" style="text-anchor: middle; visibility: inherit; font-family: Roboto, sans-serif; font-size: 12px; font-weight: 200;" fill="rgb(50, 49, 63)" stroke="none" stroke-width="1px">40</text><text x="85.95263643348846" y="0" dx="0em" dy="0.95em" style="text-anchor: middle; visibility: inherit; font-family: Roboto, sans-serif; font-size: 12px; font-weight: 200;" fill="rgb(50, 49, 63)" stroke="none" stroke-width="1px">60</text><text x="113.77135554310854" y="0" dx="0em" dy="0.95em" style="text-anchor: middle; visibility: inherit; font-family: Roboto, sans-serif; font-size: 12px; font-weight: 200;" fill="rgb(50, 49, 63)" stroke="none" stroke-width="1px">80</text><text x="141.59007465272862" y="0" dx="0em" dy="0.95em" style="text-anchor: middle; visibility: inherit; font-family: Roboto, sans-serif; font-size: 12px; font-weight: 200;" fill="rgb(50, 49, 63)" stroke="none" stroke-width="1px">100</text><text x="169.4087937623487" y="0" dx="0em" dy="0.95em" style="text-anchor: middle; visibility: inherit; font-family: Roboto, sans-serif; font-size: 12px; font-weight: 200;" fill="rgb(50, 49, 63)" stroke="none" stroke-width="1px">120</text><text x="197.22751287196877" y="0" dx="0em" dy="0.95em" style="text-anchor: middle; visibility: inherit; font-family: Roboto, sans-serif; font-size: 12px; font-weight: 200;" fill="rgb(50, 49, 63)" stroke="none" stroke-width="1px">140</text><text x="225.04623198158885" y="0" dx="0em" dy="0.95em" style="text-anchor: middle; visibility: inherit; font-family: Roboto, sans-serif; font-size: 12px; font-weight: 200;" fill="rgb(50, 49, 63)" stroke="none" stroke-width="1px">160</text><text x="252.86495109120895" y="0" dx="0em" dy="0.95em" style="text-anchor: middle; visibility: inherit; font-family: Roboto, sans-serif; font-size: 12px; font-weight: 200;" fill="rgb(50, 49, 63)" stroke="none" stroke-width="1px">180</text><text x="280.683670200829" y="0" dx="0em" dy="0.95em" style="text-anchor: middle; visibility: inherit; font-family: Roboto, sans-serif; font-size: 12px; font-weight: 200;" fill="rgb(50, 49, 63)" stroke="none" stroke-width="1px">200</text></g><line x1="0" y1="0" x2="290" y2="0" fill="rgb(0, 0, 0)" stroke="rgb(204, 204, 204)" stroke-width="1px"></line></g></g></g></g></svg>